<?xml version="1.0" encoding="UTF-8" standalone="no"?>
<svg
   xmlns:dc="http://purl.org/dc/elements/1.1/"
   xmlns:cc="http://creativecommons.org/ns#"
   xmlns:rdf="http://www.w3.org/1999/02/22-rdf-syntax-ns#"
   xmlns:svg="http://www.w3.org/2000/svg"
   xmlns="http://www.w3.org/2000/svg"
   xmlns:sodipodi="http://sodipodi.sourceforge.net/DTD/sodipodi-0.dtd"
   xmlns:inkscape="http://www.inkscape.org/namespaces/inkscape"
   width="103"
   height="148"
   viewBox="0 0 103 148"
   fill="none"
   version="1.1"
   id="svg9"
   sodipodi:docname="drak1.svg"
   inkscape:version="0.92.4 (5da689c313, 2019-01-14)">
  <metadata
     id="metadata15">
    <rdf:RDF>
      <cc:Work
         rdf:about="">
        <dc:format>image/svg+xml</dc:format>
        <dc:type
           rdf:resource="http://purl.org/dc/dcmitype/StillImage" />
        <dc:title></dc:title>
      </cc:Work>
    </rdf:RDF>
  </metadata>
  <defs
     id="defs13" />
  <sodipodi:namedview
     pagecolor="#ffffff"
     bordercolor="#666666"
     borderopacity="1"
     objecttolerance="10"
     gridtolerance="10"
     guidetolerance="10"
     inkscape:pageopacity="0"
     inkscape:pageshadow="2"
     inkscape:window-width="3840"
     inkscape:window-height="2080"
     id="namedview11"
     showgrid="false"
     inkscape:zoom="9.0203892"
     inkscape:cx="60.216427"
     inkscape:cy="85.049057"
     inkscape:window-x="-11"
     inkscape:window-y="-11"
     inkscape:window-maximized="1"
     inkscape:current-layer="svg9" />
  <mask
     id="mask0"
     mask-type="alpha"
     maskUnits="userSpaceOnUse"
     x="0"
     y="0"
     width="103"
     height="148">
    <path
       d="M19.2372 58.0984L25.8651 54.5575L15.1617 50.0548L0.499512 5.661L102.32 0.366318L94.1746 111.962L41.6351 147.395L4.16503 98.5215L17.2852 62.3883L24.7756 59.9142L19.2372 58.0984Z"
       fill="black"
       id="path2" />
  </mask>
  <g
     style="fill:none"
     id="g858"
     transform="translate(5.0307541,-1.3419389)">
    <g
       id="g846"
       mask="url(#mask0-7)">
      <path
         id="path844"
         d="M 83.1513,34.7732 C 82.827,33.6351 82.1783,30.221 82.5026,29.4081 82.827,28.4327 83.4757,26.6443 83.9622,25.1812 86.557,17.3775 85.4218,9.24872 84.6109,7.46038 84.4487,7.13523 84.1244,6.97265 83.8,6.97265 80.07,6.32235 76.9887,8.761 73.0964,13.3131 c -1.4595,1.7884 -3.2435,3.2515 -3.5678,0.6503 -0.3244,-1.6257 0.973,-5.03983 -0.4866,-4.87726 -3.5678,0.32516 -5.8383,2.43866 -7.9466,5.03986 -1.6217,2.1135 -1.6217,3.089 -3.4056,3.2515 -3.5679,0.1626 -5.1897,0.3252 -8.1088,0.9755 -2.757,0.6503 -5.1897,1.6257 -6.8114,2.7638 -2.1083,1.3006 -3.5679,3.2515 -8.5953,3.2515 -7.7844,0 -17.8393,0.3251 -21.5694,0.9754 -3.89219,0.8129 -4.54089,3.2516 -2.4326,6.8282 2.4326,4.0644 3.2435,13.0061 8.2709,14.3067 1.2974,2.7638 2.2705,5.0399 3.5679,4.8773 0.4865,-0.1626 0.9731,-1.4632 1.2974,-2.7638 0.6487,-2.7638 3.4057,-2.9264 5.1896,-2.9264 4.541,-0.1625 7.9466,0 10.8658,1.7884 2.1083,1.138 3.0813,3.2515 2.757,4.0644 -0.6487,1.4632 -2.1083,-0.4878 -9.8927,0.9754 -4.3788,0.8129 -6.9736,3.2515 -12.4876,3.2515 -1.678721,0.109116 0.129255,4.0184 6.674645,3.212396 1.2974,0.1626 -7.724471,1.631495 -7.809845,2.965504 0,0 -0.6487,1.7884 0.3244,3.2516 0.973,1.4631 3.73,2.7638 8.2709,1.3006 6.4871,-1.9509 12.001,-3.7393 16.5419,-0.3252 0.8109,0.6503 1.784,1.7884 1.784,2.4387 0,1.3006 -4.8653,5.2024 -18.4881,8.7791 -16.704,4.5521 -20.75843,15.7698 -18.97449,21.9477 0.16217,0.4877 0.48653,1.1382 0.97306,1.1382 0.48653,0 3.08133,-1.4633 4.54093,-1.7885 2.9191,-0.4877 1.6217,1.6255 1.2974,4.2265 -1.2974,9.267 12.001,21.135 23.6776,29.264 6.4871,4.552 9.8927,6.015 11.5145,6.015 1.6217,0 5.1896,-1.3 11.5145,-6.015 18.1636,-13.494 30.3268,-32.3524 28.3807,-42.4322 -1.1352,-5.6901 -4.0544,-9.2668 -2.5948,-10.0797 1.6217,-0.9754 5.1896,1.6258 6.0005,1.1381 C 95.1523,79.6441 95.9632,69.0767 92.7197,58.0215 88.8275,47.6167 85.2596,43.3897 83.1513,34.7732 Z M 48.7701,31.1965 c -1.6218,0.1626 -3.4057,-0.6503 -3.0814,-1.1381 0.1622,-0.1625 0.6487,-0.8128 0.3244,-1.6257 -0.4865,-0.9755 -2.1083,-1.1381 -3.0813,-0.3252 0.8108,-1.9509 3.5678,-3.0889 5.8383,-3.0889 3.2435,0 3.8922,1.7883 3.73,3.2515 -0.1622,1.6258 -1.6217,2.7638 -3.73,2.9264 z"
         inkscape:connector-curvature="0"
         style="fill:#174085"
         sodipodi:nodetypes="ccccccccccccscccccccccccccccsccscccsccccccccccscc" />
    </g>
  </g>
</svg>
