<svg width="91" height="343" viewBox="0 0 91 343" fill="none" xmlns="http://www.w3.org/2000/svg">
<path d="M2.28027 49.7398C3.73985 42.0987 13.3082 27.6295 22.7144 17.8749C32.2827 7.95776 40.5537 0.154114 45.5811 0.154114C50.6086 0.154114 58.8795 7.95776 68.4479 17.8749C77.6918 27.6295 87.2602 42.0987 88.882 49.7398C90.3415 57.3809 92.4498 73.3133 86.9359 96.3991C85.3141 102.902 81.7462 103.552 77.6918 103.552C75.9079 103.552 15.4165 103.552 13.6325 103.552C9.57815 103.552 6.01029 102.902 4.38854 96.3991C-1.2876 73.3133 0.820687 57.3809 2.28027 49.7398Z" fill="#F6A800"/>
<path d="M45.581 277.996C50.1219 277.996 53.6898 275.233 56.7711 274.745C59.3659 274.42 61.1498 275.233 63.4203 277.671C66.8259 281.085 71.8533 286.613 75.259 290.677C77.6916 293.604 80.9352 298.481 76.3943 310.024C70.8803 324.168 51.2571 342.702 45.4188 342.702C39.5805 342.702 19.9573 324.168 14.4434 310.024C9.9025 298.481 13.3082 293.604 15.5786 290.677C18.8221 286.613 23.8495 281.085 27.4174 277.671C29.85 275.233 31.4718 274.42 34.0666 274.745C37.3101 275.233 41.0401 277.996 45.581 277.996Z" fill="#F6A800"/>
</svg>
