<svg width="289" height="195" viewBox="0 0 289 195" fill="none" xmlns="http://www.w3.org/2000/svg">
<path d="M51.33 0.0248108C67.2232 0.0248108 87.0087 5.5524 93.9822 10.9174C96.2527 12.5432 96.9014 15.1444 93.82 18.2333C89.7656 22.2977 81.6569 30.4265 78.4134 33.678C75.4942 36.6044 74.359 38.3928 74.359 44.4081C74.359 53.5123 74.359 64.2424 74.359 68.1442C74.359 71.0705 73.2237 72.2086 69.0072 72.6963C67.8719 72.8589 65.7637 73.0214 63.9797 73.184C58.3036 73.6717 50.8435 75.7852 45.4917 84.0766C38.6803 94.6441 42.8969 108.463 44.6808 113.665C45.9782 117.567 45.8161 119.843 39.9777 118.705C23.9224 115.454 -0.890484 85.865 0.569096 53.0246C2.02868 19.0462 24.4089 0.0248108 51.33 0.0248108Z" fill="#F6A800"/>
<path d="M237.832 0.0248108C221.938 0.0248108 202.153 5.5524 195.18 10.9174C192.909 12.5432 192.26 15.1444 195.342 18.2333C199.396 22.2977 207.505 30.4265 210.748 33.678C213.668 36.6044 214.803 38.3928 214.803 44.4081C214.803 53.5123 214.803 64.2424 214.803 68.1442C214.803 71.0705 215.938 72.2086 220.155 72.6963C221.29 72.8589 223.398 73.0214 225.182 73.184C230.858 73.6717 238.318 75.7852 243.67 84.0766C250.481 94.6441 246.265 108.463 244.481 113.665C243.183 117.567 243.346 119.843 249.184 118.705C265.239 115.454 290.052 85.865 288.593 53.0246C286.971 19.0462 264.591 0.0248108 237.832 0.0248108Z" fill="#F6A800"/>
<path d="M172.313 165.852C180.26 159.837 184.638 155.773 191.287 148.944C194.369 145.855 197.937 145.368 201.667 148.944C206.856 153.984 213.181 158.049 222.425 158.699C226.155 159.024 228.101 157.886 230.696 159.024C231.993 159.674 233.291 161.463 233.453 164.552C233.777 176.745 227.939 191.052 210.262 194.141C198.748 196.254 187.233 192.677 181.557 187.312C177.665 183.573 173.286 179.509 170.853 176.095C168.259 173.006 168.259 168.941 172.313 165.852Z" fill="#F6A800"/>
<path d="M116.687 165.852C108.74 159.837 104.362 155.773 97.7123 148.944C94.631 145.855 91.0632 145.368 87.3331 148.944C82.1435 153.984 75.8187 158.049 66.5747 158.699C62.8447 159.024 60.8986 157.886 58.3037 159.024C57.0063 159.674 55.7089 161.463 55.5468 164.552C55.2224 176.745 61.0607 191.052 78.7378 194.141C90.2523 196.254 101.767 192.677 107.443 187.312C111.335 183.573 115.714 179.509 118.146 176.095C120.903 173.006 120.741 168.941 116.687 165.852Z" fill="#F6A800"/>
</svg>
