<svg width="103" height="148" viewBox="0 0 103 148" fill="none" xmlns="http://www.w3.org/2000/svg">
<mask id="mask0" mask-type="alpha" maskUnits="userSpaceOnUse" x="0" y="0" width="103" height="148">
<path d="M19.2372 58.0984L25.8651 54.5575L15.1617 50.0548L0.499512 5.661L102.32 0.366318L94.1746 111.962L41.6351 147.395L4.16503 98.5215L17.2852 62.3883L24.7756 59.9142L19.2372 58.0984Z" fill="black"/>
</mask>
<g mask="url(#mask0)">
<path d="M83.1513 34.7732C82.827 33.6351 82.1783 30.221 82.5026 29.4081C82.827 28.4327 83.4757 26.6443 83.9622 25.1812C86.557 17.3775 85.4218 9.24872 84.6109 7.46038C84.4487 7.13523 84.1244 6.97265 83.8 6.97265C80.07 6.32235 76.9887 8.761 73.0964 13.3131C71.6369 15.1015 69.8529 16.5646 69.5286 13.9634C69.2042 12.3377 70.5016 8.92357 69.042 9.08614C65.4742 9.4113 63.2037 11.5248 61.0954 14.126C59.4737 16.2395 59.4737 17.215 57.6898 17.3775C54.1219 17.5401 52.5001 17.7027 49.581 18.353C46.824 19.0033 44.3913 19.9787 42.7696 21.1168C40.6613 22.4174 39.2017 24.3683 34.1743 24.3683C26.3899 24.3683 16.335 24.6934 12.6049 25.3437C8.71271 26.1566 8.06401 28.5953 10.1723 32.1719C12.6049 36.2363 13.4158 45.178 18.4432 46.4786C19.7406 49.2424 20.7137 51.5185 22.0111 51.3559C22.4976 51.1933 22.9842 49.8927 23.3085 48.5921C23.9572 45.8283 26.7142 45.6657 28.4981 45.6657C33.0391 45.5032 36.4447 45.6657 39.3639 47.4541C41.4722 48.5921 42.4452 50.7056 42.1209 51.5185C41.4722 52.9817 40.0126 51.0307 32.2282 52.4939C27.8494 53.3068 25.2546 55.7454 19.7406 55.7454C11.4697 55.7454 7.4153 50.0553 5.95572 45.0154C5.14484 42.4142 4.65832 40.1382 1.73915 42.902C-1.99089 46.4786 -2.31523 53.3068 1.57698 57.3712C4.17179 60.135 7.90184 61.5982 12.2806 61.9233C13.578 62.0859 16.335 62.0859 18.6054 61.9233C18.6054 61.9233 17.9567 63.7117 18.9298 65.1749C19.9028 66.638 22.6598 67.9387 27.2007 66.4755C33.6878 64.5246 39.2017 62.7362 43.7426 66.1503C44.5535 66.8006 45.5266 67.9387 45.5266 68.589C45.5266 69.8896 40.6613 73.7914 27.0385 77.3681C10.3345 81.9202 6.28007 93.1379 8.06401 99.3158C8.22618 99.8035 8.55054 100.454 9.03707 100.454C9.5236 100.454 12.1184 98.9907 13.578 98.6655C16.4971 98.1778 15.1997 100.291 14.8754 102.892C13.578 112.159 26.8764 124.027 38.553 132.156C45.0401 136.708 48.4457 138.171 50.0675 138.171C51.6892 138.171 55.2571 136.871 61.582 132.156C79.7456 118.662 91.9088 99.8036 89.9627 89.7238C88.8275 84.0337 85.9083 80.457 87.3679 79.6441C88.9896 78.6687 92.5575 81.2699 93.3684 80.7822C95.1523 79.6441 95.9632 69.0767 92.7197 58.0215C88.8275 47.6167 85.2596 43.3897 83.1513 34.7732ZM48.7701 31.1965C47.1483 31.3591 45.3644 30.5462 45.6887 30.0584C45.8509 29.8959 46.3374 29.2456 46.0131 28.4327C45.5266 27.4572 43.9048 27.2946 42.9318 28.1075C43.7426 26.1566 46.4996 25.0186 48.7701 25.0186C52.0136 25.0186 52.6623 26.8069 52.5001 28.2701C52.3379 29.8959 50.8784 31.0339 48.7701 31.1965Z" fill="#174085"/>
</g>
</svg>
