<svg width="36" height="27" viewBox="0 0 36 27" fill="none" xmlns="http://www.w3.org/2000/svg">
<mask id="mask0" mask-type="alpha" maskUnits="userSpaceOnUse" x="0" y="0" width="36" height="27">
<path d="M30.5976 18.6935H28.1369L15.4881 3.0026L6.8668 0.899841L0.909058 9.17064L2.87162 20.8971L19.6936 26.4832L25.9776 25.3196L27.7315 24.7884C28.491 24.5196 30.3478 23.8793 31.6993 23.4679C33.0508 23.0566 34.7109 22.513 35.3719 22.2927L35.6657 20.8971C35.7514 19.6607 35.5776 17.3126 34.1967 17.8121C32.8158 18.3116 31.2219 18.6079 30.5976 18.6935Z" fill="black"/>
</mask>
<g mask="url(#mask0)">
<path d="M91.6258 -2.27098C91.3015 -3.40901 90.6527 -6.82311 90.9771 -7.63599C91.3014 -8.61144 91.9502 -10.3998 92.4367 -11.863C95.0315 -19.6666 93.8963 -27.7954 93.0854 -29.5837C92.9232 -29.9089 92.5989 -30.0715 92.2745 -30.0715C88.5445 -30.7218 85.4631 -28.2831 81.5709 -23.731C80.1113 -21.9427 78.3274 -20.4795 78.003 -23.0807C77.6787 -24.7065 78.9761 -28.1206 77.5165 -27.958C73.9487 -27.6328 71.6782 -25.5193 69.5699 -22.9181C67.9482 -20.8046 67.9482 -19.8292 66.1642 -19.6666C62.5964 -19.504 60.9746 -19.3415 58.0555 -18.6912C55.2985 -18.0409 52.8658 -17.0654 51.2441 -15.9274C49.1358 -14.6268 47.6762 -12.6759 42.6488 -12.6759C34.8643 -12.6759 24.8095 -12.3507 21.0794 -11.7004C17.1872 -10.8875 16.5385 -8.44887 18.6468 -4.8722C21.0794 -0.807803 21.8903 8.13388 26.9177 9.43449C28.2151 12.1983 29.1882 14.4743 30.4856 14.3118C30.9721 14.1492 31.4586 12.8486 31.783 11.548C32.4317 8.78419 35.1887 8.62161 36.9726 8.62161C41.5135 8.45903 44.9192 8.62162 47.8384 10.41C49.9467 11.548 50.9197 13.6615 50.5954 14.4744C49.9467 15.9375 48.4871 13.9866 40.7027 15.4498C36.3239 16.2627 33.7291 18.7013 28.2151 18.7013C19.9442 18.7013 15.8898 13.0112 14.4302 7.97131C13.6193 5.3701 13.1328 3.09403 10.2136 5.85782C6.4836 9.43449 6.15925 16.2627 10.0515 20.3271C12.6463 23.0909 16.3763 24.5541 20.7551 24.8792C22.0525 25.0418 24.8094 25.0418 27.0799 24.8792C27.0799 24.8792 26.4312 26.6675 27.4043 28.1307C28.3773 29.5939 31.1343 30.8945 35.6752 29.4313C42.1622 27.4804 47.6762 25.6921 52.2171 29.1062C53.028 29.7565 54.0011 30.8945 54.0011 31.5448C54.0011 32.8454 49.1358 36.7473 35.513 40.3239C18.8089 44.8761 14.7546 56.0938 16.5385 62.2717C16.7007 62.7594 17.025 63.4097 17.5116 63.4097C17.9981 63.4097 20.5929 61.9465 22.0525 61.6214C24.9716 61.1337 23.6742 63.2471 23.3499 65.8484C22.0525 75.1152 35.3509 86.9832 47.0275 95.112C53.5145 99.6641 56.9202 101.127 58.542 101.127C60.1637 101.127 63.7316 99.8267 70.0564 95.112C88.2201 81.6182 100.383 62.7594 98.4372 52.6797C97.302 46.9896 94.3828 43.4129 95.8424 42.6C97.4641 41.6245 101.032 44.2258 101.843 43.738C103.627 42.6 104.438 32.0326 101.194 20.9774C97.3019 10.5725 93.7341 6.34555 91.6258 -2.27098ZM57.2446 -5.84764C55.6228 -5.68507 53.8389 -6.49797 54.1632 -6.98569C54.3254 -7.14827 54.8119 -7.79857 54.4876 -8.61145C54.0011 -9.58691 52.3793 -9.74948 51.4062 -8.9366C52.2171 -10.8875 54.9741 -12.0255 57.2446 -12.0255C60.4881 -12.0255 61.1368 -10.2372 60.9746 -8.77402C60.8124 -7.14826 59.3529 -6.01022 57.2446 -5.84764Z" fill="#174085"/>
</g>
</svg>
