<svg width="331" height="269" viewBox="0 0 331 269" fill="none" xmlns="http://www.w3.org/2000/svg">
<path d="M14.2714 158.083C17.1906 136.948 29.0294 121.178 42.1656 113.7C63.2484 101.669 84.169 106.221 98.7648 109.473C100.873 109.961 102.657 109.635 103.306 108.335C103.792 107.197 103.468 106.059 101.684 104.108C94.8726 96.7919 78.9794 81.022 77.0333 79.3962C72.1681 75.3318 64.2215 73.0558 58.0588 73.0558C22.3802 73.0558 0 100.206 0 130.445C0 138.411 2.27046 148.654 4.70309 154.344C6.97354 159.709 9.40617 164.423 11.3523 164.423C13.6227 164.423 13.7849 161.172 14.2714 158.083Z" fill="#174085"/>
<path d="M218.937 99.7182C217.964 98.9053 217.639 97.4421 217.964 95.166C219.423 80.0465 217.964 65.0895 214.882 58.0987C210.99 49.157 201.746 35.9884 194.448 28.3473C185.042 18.4302 181.637 15.6664 177.258 12.4149C176.123 11.602 173.852 10.3014 173.852 9.16335C173.852 7.86274 175.636 6.72471 177.907 5.58668C181.961 3.63576 187.961 1.03455 198.827 0.22167C211.801 -0.916362 230.289 1.84743 244.398 19.8934C252.345 29.9731 253.318 42.1663 253.318 50.4576C253.318 60.3748 251.696 69.1539 246.993 74.3563C240.02 81.9974 225.262 96.7918 223.316 98.4176C222.343 99.2304 220.234 100.694 218.937 99.7182Z" fill="#174085"/>
<path d="M270.022 268.797C305.701 271.073 331 240.997 331 211.408C331 200.19 329.378 194.175 326.459 187.997C323.864 182.632 320.945 179.055 319.323 179.055C317.539 179.055 317.053 181.494 316.891 183.12C309.917 219.374 284.456 240.346 267.103 240.672C262.075 240.834 255.751 239.533 255.264 237.095C254.453 233.518 260.616 226.04 260.616 211.733C260.616 206.043 258.021 195.475 242.29 194.988C228.343 194.5 221.532 207.506 221.532 219.211C221.207 243.273 238.884 266.846 270.022 268.797Z" fill="#174085"/>
</svg>
