<svg width="331" height="269" viewBox="0 0 331 269" fill="none" xmlns="http://www.w3.org/2000/svg">
<path d="M60.9779 268.797C25.2994 271.073 0 240.997 0 211.408C0 200.19 1.62175 194.175 4.54091 187.997C7.13572 182.632 10.0549 179.055 11.6766 179.055C13.4606 179.055 13.9471 181.494 14.1093 183.12C21.0828 219.374 46.5443 240.346 63.8971 240.672C68.9245 240.834 75.2494 239.533 75.7359 237.095C76.5468 233.518 70.3841 226.04 70.3841 211.733C70.3841 206.043 72.9789 195.475 88.7099 194.988C102.657 194.5 109.468 207.506 109.468 219.211C109.793 243.273 92.1156 266.846 60.9779 268.797Z" fill="#174085"/>
<path d="M112.063 99.7182C113.036 98.9053 113.361 97.4421 113.036 95.166C111.577 80.0465 113.036 65.0895 116.118 58.0987C120.01 49.157 129.254 35.9884 136.552 28.3473C145.958 18.4302 149.364 15.6664 153.742 12.4149C154.878 11.602 157.148 10.3014 157.148 9.16335C157.148 7.86274 155.364 6.72471 153.094 5.58668C149.039 3.63576 143.039 1.03455 132.173 0.22167C119.199 -0.916362 100.711 1.84743 86.6016 19.8934C78.8172 29.8105 77.8441 42.1663 77.8441 50.4576C77.8441 60.3748 79.4659 69.1539 84.169 74.3563C91.1425 81.9974 105.9 96.7918 107.847 98.4176C108.657 99.2304 110.766 100.694 112.063 99.7182Z" fill="#174085"/>
<path d="M316.728 158.083C313.809 136.948 301.97 121.178 288.834 113.7C267.751 101.669 246.831 106.221 232.235 109.473C230.127 109.961 228.343 109.635 227.694 108.335C227.208 107.197 227.532 106.059 229.316 104.108C236.127 96.7919 252.02 81.022 253.966 79.3962C258.832 75.3318 266.778 73.0558 272.941 73.0558C308.62 73.0558 331 100.206 331 130.445C331 138.411 328.729 148.654 326.297 154.344C324.026 159.709 321.594 164.423 319.648 164.423C317.377 164.423 317.215 161.172 316.728 158.083Z" fill="#174085"/>
</svg>
