<svg width="5652" height="619" viewBox="0 0 5652 619" fill="none" xmlns="http://www.w3.org/2000/svg">
<path d="M510.789 39.7225C329.604 39.7225 163.983 13.3478 103.821 0.160496C64.6579 180.387 -10.4694 540.841 2.32955 540.841C18.3283 540.841 303.306 585.776 464.293 585.776C625.28 585.776 744.271 557.448 851.762 557.448C959.253 557.448 1073.74 585.776 1166.24 585.776C1258.73 585.776 1334.72 540.841 1621.7 540.841C1908.68 540.841 2065.17 618.5 2318.65 618.5C2572.12 618.5 3021.09 554.517 3198.08 554.517C3375.06 554.517 3523.55 607.266 3766.53 607.266C4009.51 607.266 4268.49 554.517 4467.97 554.517C4667.46 554.517 4980.93 582.357 5193.92 582.357C5364.3 582.357 5570.22 563.797 5651.88 554.517V353.288V0.160496C5401.9 0.160496 5261.41 39.7225 5005.93 39.7225C4750.45 39.7225 4655.96 0.160496 4427.98 0.160496C4200 0.160496 4117.5 39.7225 3899.02 39.7225C3680.54 39.7225 3569.05 0.160496 3312.57 0.160496C3056.09 0.160496 2976.09 39.7225 2637.12 39.7225C2298.15 39.7225 2213.65 0.160496 2007.17 0.160496C1800.69 0.160496 1714.19 39.7225 1453.71 39.7225C1193.23 39.7225 1117.24 0.160496 931.256 0.160496C745.27 0.160496 737.271 39.7225 510.789 39.7225Z" fill="#F6A800"/>
</svg>
