<?xml version="1.0" encoding="UTF-8" standalone="no"?>
<!-- Created with Inkscape (http://www.inkscape.org/) -->

<svg
   xmlns:dc="http://purl.org/dc/elements/1.1/"
   xmlns:cc="http://creativecommons.org/ns#"
   xmlns:rdf="http://www.w3.org/1999/02/22-rdf-syntax-ns#"
   xmlns:svg="http://www.w3.org/2000/svg"
   xmlns="http://www.w3.org/2000/svg"
   xmlns:sodipodi="http://sodipodi.sourceforge.net/DTD/sodipodi-0.dtd"
   xmlns:inkscape="http://www.inkscape.org/namespaces/inkscape"
   version="1.1"
   id="svg4247"
   inkscape:version="0.92.4 (5da689c313, 2019-01-14)"
   width="1000"
   height="1153.3666"
   viewBox="0 0 1000 1153.3666"
   sodipodi:docname="skauti.svg">
  <metadata
     id="metadata4253">
    <rdf:RDF>
      <cc:Work
         rdf:about="">
        <dc:format>image/svg+xml</dc:format>
        <dc:type
           rdf:resource="http://purl.org/dc/dcmitype/StillImage" />
        <dc:title />
      </cc:Work>
    </rdf:RDF>
  </metadata>
  <defs
     id="defs4251" />
  <sodipodi:namedview
     pagecolor="#ffffff"
     bordercolor="#666666"
     borderopacity="1"
     objecttolerance="10"
     gridtolerance="10"
     guidetolerance="10"
     inkscape:pageopacity="0"
     inkscape:pageshadow="2"
     inkscape:window-width="3840"
     inkscape:window-height="2080"
     inkscape:document-units="px"
     id="namedview4249"
     showgrid="false"
     fit-margin-top="0"
     fit-margin-left="0"
     fit-margin-right="0"
     fit-margin-bottom="0"
     inkscape:zoom="1"
     inkscape:cx="514.39854"
     inkscape:cy="521.74136"
     inkscape:window-x="-11"
     inkscape:window-y="-11"
     inkscape:window-maximized="1"
     inkscape:current-layer="svg4247" />
  <path
     inkscape:connector-curvature="0"
     id="path4283"
     d="m 657.1974,1078.9949 -4.00895,-6.323 9.29046,-9.4401 c 10.34339,-10.51 12.25865,-11.1348 17.24451,-5.6255 3.32144,3.6703 3.03629,4.2671 -7.53246,15.7632 l -10.9846,11.9485 z m -356.7697,-13.627 -9.78703,-12.0294 4.81855,-3.6741 4.81854,-3.6742 9.90521,9.8549 c 9.87064,9.8204 9.89375,9.8739 6.61606,15.2759 -1.80916,2.9815 -4.03065,5.6134 -4.93682,5.8487 -0.90617,0.2352 -6.05166,-4.9856 -11.43451,-11.6018 z m 352.6109,-8.5951 c 4.82745,-4.9188 10.13153,-8.9433 11.78687,-8.9433 3.15324,0 -15.3438,17.6424 -18.65968,17.7975 -1.04738,0.049 2.04545,-3.9354 6.87281,-8.8542 z m -336.90689,-7.0016 c -5.35833,-5.4402 -8.84434,-9.8912 -7.7467,-9.8912 2.58312,0 19.78106,17.4903 18.4787,18.7928 -0.54428,0.5441 -5.37367,-3.4615 -10.732,-8.9016 z m 315.43557,-0.5457 c -3.4936,-3.6045 -6.35208,-7.1636 -6.35208,-7.9092 0,-2.1092 15.27386,-9.3858 19.70124,-9.3858 4.63782,0 14.08439,4.0041 14.08439,5.9701 0,1.3158 -18.84058,17.8785 -20.33742,17.8785 -0.40925,0 -3.60253,-2.9491 -7.09613,-6.5536 z m -306.94403,-8.5072 c -5.19207,-4.9535 -9.44013,-9.2959 -9.44013,-9.6497 0,-0.3538 2.68833,-1.7568 5.97405,-3.1178 7.50079,-3.1069 17.25536,-1.2697 23.27272,4.3833 l 4.59539,4.3172 -6.3803,6.5828 c -3.50921,3.6205 -6.87563,6.5621 -7.48103,6.5368 -0.60532,-0.026 -5.34872,-4.099 -10.5407,-9.0526 z m 126.35074,-10.7276 c 5.66676,-6.7346 8.23258,-15.8425 6.23547,-22.1348 -1.234,-3.8879 -0.82864,-4.1645 4.32348,-2.95 13.63272,3.2133 34.5019,9.8181 34.49846,10.9181 -0.009,2.3137 -18.95939,14.0252 -27.57265,17.0387 -4.78291,1.6734 -11.79339,3.0425 -15.57885,3.0425 h -6.88269 z m 98.72058,3.7359 c -7.69139,-1.499 -19.87384,-5.5418 -19.87384,-6.5951 0,-0.188 5.20644,-5.6957 11.56999,-12.2394 11.36051,-11.6822 11.71119,-11.8679 19.37692,-10.2661 4.29393,0.8972 9.81931,1.1304 12.27876,0.5183 2.45937,-0.6121 4.47157,-0.2701 4.47157,0.7601 0,1.0301 3.11575,5.9548 6.92378,10.9436 l 6.92379,9.0707 -4.43954,2.8947 c -4.55165,2.9678 -19.9766,7.128 -25.30705,6.8256 -1.63964,-0.093 -7.00555,-0.9537 -11.92438,-1.9124 z m -140.20995,-6.3476 c -5.52,-2.4154 -12.67452,-6.3757 -15.89911,-8.8004 l -5.86283,-4.4087 7.15619,-0.063 c 8.25482,-0.072 19.30628,-3.4318 23.69723,-7.2028 4.13931,-3.5551 25.78712,-1.4452 25.78712,2.5132 0,5.434 -5.6209,16.0866 -10.1692,19.2723 -6.16668,4.3193 -12.62688,3.9766 -24.7094,-1.3106 z m 194.90374,-8.8898 c -6.53597,-7.0926 -13.93736,-13.8314 -16.44736,-14.9751 -5.83381,-2.6579 -4.94714,-5.07119 3.59459,-9.78398 14.54356,-8.02417 33.22847,-1.27811 48.67661,17.57438 l 7.13035,8.7016 h -5.96584 c -7.43491,0 -15.9306,3.1399 -21.1299,7.8092 -3.88389,3.4878 -4.24657,3.2747 -15.85845,-9.3261 z m -253.31604,1.9862 c -7.12992,-5.4735 -10.24373,-6.6411 -16.19591,-6.0735 l -7.36893,0.7027 5.98164,-7.5524 c 5.31934,-6.7162 13.99945,-14.25999 20.83107,-18.10428 1.49958,-0.84381 3.76535,1.78658 6.16703,7.15955 2.08814,4.67133 6.08342,10.75033 8.87839,13.50893 l 5.08173,5.0156 -7.27403,6.0599 -7.27403,6.0598 z m 156.05129,-8.2933 c -4.03948,-3.2102 -15.78869,-8.65 -26.10923,-12.0883 -10.32064,-3.43826 -18.76473,-6.54625 -18.76473,-6.90664 0,-0.36038 5.50051,-4.40982 12.22337,-8.99878 l 12.22329,-8.34354 15.10319,4.32841 c 19.5199,5.59417 36.33981,15.45105 35.55104,20.83385 -0.60655,4.1387 -15.98969,17.0117 -20.32904,17.0117 -1.40432,0 -5.85833,-2.6266 -9.89789,-5.8367 z m -127.68326,-11.3508 c -5.3855,-1.16576 -12.24199,-15.19653 -14.64685,-29.97223 -1.61318,-9.91192 -1.37283,-15.04781 1.31912,-28.19221 l 0.98299,-4.79975 3.6304,5.96973 c 4.03877,6.64124 13.25672,14.56036 16.94842,14.56036 1.31833,0 3.51795,5.00976 4.88822,11.13278 1.69882,7.59111 4.64656,13.51815 9.26603,18.63137 5.30567,5.8728 6.22375,7.95582 4.23413,9.6071 -2.9375,2.43795 -20.28794,4.43405 -26.62246,3.06285 z m 170.00073,-9.98012 c -1.50019,-1.82547 -8.89611,-6.18343 -16.43554,-9.68444 l -13.70795,-6.36549 11.72054,-4.39421 c 17.29488,-6.48411 42.89448,-5.32472 59.19922,2.68102 l 11.70573,5.74764 -9.05082,3.43556 c -4.97792,1.8896 -11.72504,5.3399 -14.99356,7.66732 -7.55283,5.37799 -24.32556,5.91628 -28.43762,0.9126 z M 439.39474,988.01 c -3.27919,-1.01404 -9.15331,-1.33323 -13.05351,-0.70922 -6.7533,1.08045 -7.4417,0.63416 -14.43702,-9.35855 l -7.34556,-10.49298 4.50005,-1.72775 c 5.78486,-2.22105 41.91784,-0.41498 51.91002,2.59467 l 7.6622,2.30793 -10.64327,9.69547 c -5.85383,5.33249 -11.09053,9.65914 -11.63711,9.61478 -0.54649,-0.0441 -3.67662,-0.91032 -6.9558,-1.92435 z m 179.31801,-8.89233 c -11.88301,-6.09885 -13.22065,-7.35164 -11.42755,-10.70218 1.11705,-2.08717 2.05497,-6.76018 2.08434,-10.38441 0.0503,-6.18299 0.86586,-6.95765 13.2166,-12.55187 7.23972,-3.27919 13.84934,-6.23574 14.68803,-6.57002 2.48592,-0.99093 6.24033,21.01167 4.77339,27.97426 -1.62359,7.70604 -6.8475,19.37587 -8.61238,19.23942 -0.69528,-0.0538 -7.32034,-3.20607 -14.72243,-7.0052 z M 445.35688,951.59283 c -16.53997,-3.3848 -34.77929,-9.46716 -34.77929,-11.59799 0,-2.34744 9.88828,-12.1663 15.01605,-14.91056 2.97957,-1.59466 8.95662,-1.43484 22.60928,0.6047 10.20747,1.5248 18.89694,3.11037 19.30998,3.5235 0.41313,0.41304 -0.60214,3.98973 -2.25607,7.94814 -1.65393,3.95842 -3.00718,9.46175 -3.00718,12.22946 0,5.61327 -0.13856,5.63135 -16.89277,2.20275 z m 33.05754,1.36763 c -6.61783,-0.80288 -6.67613,-0.89867 -5.40199,-8.86705 1.84876,-11.56152 4.25045,-15.00026 11.57872,-16.57851 9.73913,-2.09749 17.22573,-6.41902 29.5821,-17.07596 l 11.18218,-9.64432 1.15674,5.78354 c 0.63619,3.18093 4.02924,9.05523 7.54022,13.05395 l 6.38356,7.27041 -5.80444,4.85709 c -21.02176,17.59052 -36.83179,23.55288 -56.21709,21.20085 z m 48.97913,0.10293 c -5.24269,-1.37609 19.06805,-19.04701 31.96033,-23.23121 5.85913,-1.9016 11.15421,-2.95612 11.76685,-2.34348 1.53997,1.53997 -3.13383,21.06886 -5.81573,24.30038 -2.12086,2.55542 -29.52133,3.47649 -37.91145,1.27431 z m 53.2145,-6.09378 c 0.84037,-1.91288 1.86967,-7.0552 2.28721,-11.42746 1.54852,-16.21327 1.2594,-15.89364 22.92547,-25.35088 11.21348,-4.89475 22.47715,-9.5503 25.03036,-10.34568 4.19021,-1.30545 4.43214,-1.05364 2.48425,2.58593 -1.18691,2.2177 -2.17166,8.33905 -2.18833,13.60291 -0.0159,5.26395 -0.68752,10.57333 -1.49058,11.79869 -1.97533,3.01397 -24.77777,14.35438 -38.03211,18.91458 -13.10952,4.51042 -12.89846,4.50601 -11.01627,0.22191 z m -194.12732,-4.24039 c -2.73896,-2.15446 -6.61685,-7.5471 -8.6174,-11.98356 l -3.63746,-8.06642 5.33116,-7.6928 c 8.31197,-11.99414 25.41395,-23.1136 41.35875,-26.89095 l 5.3697,-1.27202 -2.88546,6.90589 c -1.58698,3.79824 -2.88546,10.51785 -2.88546,14.93243 0,6.23266 -1.17571,9.02295 -5.2606,12.48498 -8.17341,6.92723 -13.50704,12.35638 -18.8659,19.2037 l -4.92738,6.29606 -4.97995,-3.91722 z m 260.03892,-28.5514 c 0.95979,-11.82109 4.07052,-21.36433 6.96409,-21.36433 1.07269,0 9.23666,-3.41184 18.14221,-7.58185 l 16.19194,-7.58185 v 14.43084 c 0,7.93703 -0.89435,15.28515 -1.98741,16.32935 -2.15641,2.05983 -35.74887,16.20164 -38.48554,16.20164 -0.91984,0 -1.29116,-4.69524 -0.82529,-10.4338 z m -317.22374,1.43969 c -9.18047,-3.75873 -17.0301,-7.17251 -17.44375,-7.58608 -1.56767,-1.56776 17.58364,-19.19091 20.81317,-19.15237 1.8619,0.0221 11.11373,2.9682 20.55942,6.54674 l 17.17413,6.50625 -4.2561,4.20158 c -2.34082,2.31084 -6.33637,6.96648 -8.87882,10.34604 -2.54255,3.37955 -6.11985,6.10573 -7.94956,6.05819 -1.8298,-0.0476 -10.83801,-3.16162 -20.01849,-6.92035 z m 145.96403,0.57965 c -2.02031,-1.13064 -11.58718,-2.50691 -21.25981,-3.05842 -20.19551,-1.15154 -20.48569,-1.54253 -12.30214,-16.57843 l 5.28424,-9.70897 h 12.30566 c 6.76803,0 15.34557,1.03609 19.06108,2.30255 7.9246,2.70104 23.64836,13.0185 23.64836,15.51729 0,1.98874 -10.56944,8.83121 -18.01317,11.66128 -3.3344,1.26779 -6.29925,1.22175 -8.72422,-0.1353 z m 69.6945,-1.69794 c -5.03322,-3.95912 -11.15889,-13.47846 -11.15889,-17.34091 0,-2.50673 21.01559,-11.71049 33.11901,-14.50423 5.93621,-1.37027 14.48279,-1.73824 21.11799,-0.90925 10.9368,1.36648 24.28658,8.14218 23.76558,12.06232 -0.38729,2.91466 -25.90787,12.91072 -33.09167,12.96161 -6.67727,0.0476 -21.72498,6.14207 -23.91552,9.68639 -1.93563,3.13189 -3.8531,2.75069 -9.8365,-1.95593 z m 156.54388,-18.20783 c -0.12718,-2.45937 -0.9089,-8.64281 -1.73718,-13.74085 l -1.50611,-9.26921 17.20871,-11.10147 c 9.46483,-6.10582 17.56917,-11.10146 18.00973,-11.10146 0.44047,0 0.69749,1.56502 0.57101,3.4779 -0.12648,1.91288 0.90846,6.87916 2.29981,11.0362 3.35257,10.01643 1.65366,15.48686 -6.23891,20.08878 -14.36955,8.37839 -26.44166,15.01164 -27.38213,15.04569 -0.54649,0.0203 -1.09774,-1.97621 -1.22493,-4.43558 z m -424.5723,-6.73354 c -8.47126,-4.96398 -15.39664,-9.61592 -15.38976,-10.33757 0.009,-0.72174 2.46634,-2.8441 5.46531,-4.71649 2.99907,-1.87231 7.95529,-5.43277 11.0138,-7.91216 l 5.5611,-4.50799 18.66921,9.89957 c 17.26823,9.15674 18.34233,10.072 14.31283,12.19647 -2.39604,1.2632 -6.39547,5.06409 -8.88756,8.44638 -6.22683,8.45106 -12.08446,7.86647 -30.74493,-3.06821 z M 750.4205,868.01676 c 0,-2.86632 -1.41427,-7.94637 -3.14281,-11.28898 -4.32601,-8.36559 -2.31105,-14.11808 7.60937,-21.7241 4.64829,-3.5639 11.35798,-9.18224 14.91043,-12.48515 4.94731,-4.5999 6.45901,-5.23079 6.45901,-2.69566 0,1.82036 1.8565,6.87149 4.12554,11.22469 6.30144,12.08957 4.78215,15.39804 -13.56562,29.54162 -15.8045,12.18306 -16.39592,12.45102 -16.39592,7.42758 z M 228.50483,856.58525 c -12.33927,-9.74707 -14.84035,-12.54283 -11.76111,-13.14718 2.15102,-0.42213 6.62258,-2.81781 9.93687,-5.32375 9.78712,-7.39998 13.10379,-6.84582 29.59198,4.94475 14.83092,10.60535 17.86835,13.98147 12.57882,13.98147 -1.4351,0 -5.17972,2.68295 -8.32131,5.96214 -8.604,8.9807 -13.86707,7.92601 -32.02525,-6.41743 z m 564.23508,-31.00583 c -6.97981,-15.37035 -6.77193,-16.23541 7.64251,-31.80439 7.25253,-7.83339 13.73436,-14.24253 14.40409,-14.24253 0.66973,0 1.2177,1.37768 1.2177,3.06159 0,1.68383 1.74647,5.48472 3.88104,8.4463 9.19227,12.75407 6.90967,18.8352 -13.47696,35.90384 l -9.45412,7.91542 z m -606.73681,-7.2929 c -9.90856,-9.97516 -13.64577,-14.90536 -11.2985,-14.90536 1.92902,0 7.01331,-1.7887 11.2985,-3.97482 4.2852,-2.18613 9.39189,-3.93196 11.34826,-3.87957 4.35928,0.1166 34.57881,27.72179 30.35129,27.72558 -1.65904,0 -6.30683,2.23843 -10.3283,4.97113 -11.46327,7.78947 -14.81902,6.72649 -31.37125,-9.93696 z m 298.25527,2.11521 c -28.78848,-17.1482 -51.8601,-39.17782 -66.50977,-63.50612 l -6.91135,-11.47738 7.13283,-11.15042 c 13.8354,-21.62805 30.36787,-64.73394 30.36787,-79.17916 v -4.75619 l 20.37067,1.27961 c 11.20387,0.70374 20.68088,1.54014 21.05987,1.85846 0.37908,0.3184 1.46862,16.51668 2.42136,35.99636 1.64193,33.57351 4.79878,63.85812 6.8728,65.93215 3.85726,3.85725 6.27984,-12.7823 9.07296,-62.3178 1.2326,-21.86126 2.368,-39.85097 2.52305,-39.97727 0.15506,-0.12621 9.28861,-0.82696 20.29685,-1.55708 l 20.01496,-1.32741 2.46387,13.37209 c 3.45144,18.73165 14.4917,46.45785 26.13639,65.63817 l 9.88061,16.27467 -4.36634,7.57399 c -13.80904,23.95327 -39.48485,49.69788 -64.45621,64.62891 -8.6077,5.14682 -16.99182,9.8365 -18.63146,10.42145 -1.63955,0.58503 -9.62209,-2.89208 -17.73896,-7.72703 z M 835.87805,792.9867 c 0,-1.54509 -2.65808,-6.32226 -5.90686,-10.61593 -3.24878,-4.29366 -5.93174,-9.486 -5.96215,-11.53841 -0.0303,-2.05241 4.28734,-9.6542 9.59502,-16.89277 5.30766,-7.23857 10.64639,-14.94972 11.86387,-17.13585 1.79786,-3.2283 2.22492,-3.35698 2.274,-0.68487 0.0332,1.80942 3.19058,7.03642 7.01629,11.6155 8.14431,9.74804 8.44666,12.15405 2.58398,20.56074 -9.41055,13.49398 -21.46415,27.36008 -21.46415,24.69159 z m -672.089,-0.98846 c -2.8134,-0.65603 -27.47059,-30.52831 -27.47059,-33.28086 0,-0.50671 1.23709,-0.44664 2.74911,0.13363 1.51201,0.58018 6.09285,-0.34222 10.1796,-2.04986 13.55916,-5.66535 16.64228,-4.35849 30.09507,12.75619 12.21685,15.54243 12.21817,15.5456 6.95581,16.46262 -2.8949,0.50441 -8.39356,2.23084 -12.21923,3.83643 -3.82577,1.6056 -8.45609,2.56953 -10.28977,2.14194 z M 869.6636,747.35352 c 0,-1.78905 -3.13012,-6.47591 -6.95585,-10.41536 -3.82572,-3.93937 -6.95584,-9.04844 -6.95584,-11.35337 0,-3.10561 12.84923,-29.6412 17.00282,-35.11348 1.12615,-1.48361 18.77011,17.44914 18.77011,20.14118 0,2.74037 -12.82368,26.88627 -19.15829,36.07353 -2.23103,3.23571 -2.70295,3.35222 -2.70295,0.6675 z M 116.94145,728.16446 c -5.73856,-9.84409 -10.4338,-18.28721 -10.4338,-18.76252 0,-0.47522 2.20483,-0.44267 4.89951,0.0723 2.6946,0.51508 7.71945,-0.0468 11.16612,-1.24803 10.28474,-3.58525 13.99302,-1.10815 24.90803,16.63866 l 10.16911,16.53406 -7.18803,1.27229 c -3.95348,0.69969 -10.76534,1.749 -15.13759,2.33183 l -7.94955,1.05963 z m 237.98944,13.81239 c -16.37742,-3.51848 -31.57648,-15.50777 -39.31101,-31.00909 -3.33766,-6.68944 -8.82626,-22.9036 -7.72923,-22.83348 0.18522,0.0115 4.72682,1.35334 10.09255,2.98107 13.25673,4.02156 22.84213,3.71992 35.79536,-1.12649 14.66078,-5.48534 27.10809,-19.24507 32.19723,-35.59205 2.20888,-7.09525 4.66913,-11.64514 6.02282,-11.13834 1.25862,0.47125 11.31977,1.95142 22.35809,3.28924 23.31055,2.82522 22.89672,2.17422 15.86524,24.95981 -15.24996,49.41793 -44.7518,77.03035 -75.29105,70.46933 z m 264.49398,-2.51238 c -11.31791,-3.25185 -30.14711,-23.95239 -39.50601,-43.43224 -7.3087,-15.21265 -14.32518,-36.79827 -14.32518,-44.07019 0,-2.03459 5.48974,-3.50154 20.37067,-5.44344 11.20387,-1.462 21.29721,-3.00841 22.42953,-3.43636 1.13239,-0.42794 3.09379,3.09141 4.35875,7.82087 3.44315,12.87359 14.11279,27.33089 25.21823,34.17071 8.88933,5.47484 11.31933,6.02001 26.82974,6.02001 9.38033,0 19.18517,-0.7684 21.78866,-1.70756 4.59108,-1.65622 4.69057,-1.47893 3.3075,5.89344 -3.22627,17.19785 -14.83303,32.18982 -31.28648,40.41174 -12.95967,6.476 -25.55648,7.68892 -39.18541,3.77302 z M 103.29744,695.9562 c -2.55568,-0.94541 -6.240239,-6.81583 -10.101194,-16.09332 -10.175898,-24.45239 -10.613459,-22.61386 5.341745,-22.44558 7.620749,0.0803 14.200019,0.53591 14.620739,1.01227 0.84645,0.9583 17.19759,35.87879 17.19759,36.72816 0,0.29282 -1.58337,0.11845 -3.51865,-0.38764 -1.9352,-0.50609 -7.11818,-0.11131 -11.51778,0.87715 -4.3995,0.98855 -9.8096,1.12755 -12.02245,0.30896 z m 792.20217,-0.5157 c 0,-1.4351 -2.75993,-5.23599 -6.13319,-8.44647 -10.93935,-10.41122 -10.99059,-11.37137 -1.67619,-31.38783 l 8.456,-18.17175 9.61362,9.37883 c 5.28752,5.15838 9.61364,10.76578 9.61364,12.4609 0,3.31702 -17.28332,38.77554 -18.90014,38.77554 -0.53555,0 -0.97374,-1.17421 -0.97374,-2.60922 z M 105.86909,645.07662 c -0.71566,-0.71565 -6.076013,-1.1451 -11.911942,-0.95441 -7.982012,0.26081 -11.366687,-0.5247 -13.661739,-3.17052 -2.65094,-3.05613 -11.548026,-32.01766 -11.548026,-37.59067 0,-1.85423 3.666209,-1.48996 25.339154,2.51785 2.532575,0.46825 4.520338,2.3186 4.584019,4.26694 0.06174,1.89197 2.565654,10.81817 5.564094,19.836 4.93347,14.83727 5.3653,18.82567 1.63444,15.09481 z m 808.84519,-5.33901 c -3.09511,-2.35979 -8.14692,-6.59057 -11.22614,-9.40168 l -5.59854,-5.1111 4.63608,-18.73756 c 2.54983,-10.30555 4.69506,-19.09962 4.76715,-19.5423 0.0721,-0.44267 1.69616,0.56113 3.60901,2.23058 1.91288,1.66954 6.79881,4.5774 10.85759,6.46197 4.05879,1.88457 7.85219,4.91557 8.4299,6.73549 0.8229,2.59299 -7.60452,39.49331 -9.41915,41.2424 -0.23558,0.22694 -2.96069,-1.51801 -6.0559,-3.8778 z M 456.28751,635.1229 c -47.44543,-4.65008 -73.53667,-9.41032 -85.50682,-15.60037 -6.28583,-3.25053 -7.72341,-8.91588 -3.21233,-12.6597 4.94194,-4.10148 24.705,-9.85618 46.40414,-13.51207 30.76169,-5.18289 138.34073,-5.24869 170.74206,-0.10451 37.93226,6.0222 54.81206,13.15952 50.44061,21.32773 -4.51258,8.43174 -38.26531,16.26355 -85.4606,19.82983 -24.93546,1.88421 -77.39859,2.28808 -93.40706,0.71909 z m 134.87173,-16.53503 c 22.08017,-2.71885 30.68955,-5.3787 25.96626,-8.02205 -12.50888,-7.00044 -101.55233,-11.52801 -161.33482,-8.20322 -52.16942,2.90134 -76.50724,6.22154 -74.10441,10.10939 1.43801,2.32672 23.25728,5.90984 48.87797,8.02664 27.60087,2.2805 137.14227,0.97717 160.595,-1.91076 z M 81.131456,590.6955 c -16.161327,-2.35661 -16.310561,-2.61019 -20.00032,-33.9839 l -1.546763,-13.15177 6.505014,2.71798 c 3.577833,1.4949 8.546051,2.74646 11.040524,2.78121 7.912598,0.11025 10.677051,4.25326 13.218798,19.81069 1.339405,8.19792 2.93706,16.91755 3.550403,19.37701 0.613343,2.45937 0.347508,4.35999 -0.590852,4.22363 -0.938271,-0.13636 -6.417873,-0.93501 -12.176804,-1.77485 z M 932.4498,587.02779 c -0.92962,-1.49022 -5.4811,-4.38636 -10.11442,-6.43586 -12.62328,-5.58386 -12.81357,-6.12205 -10.23676,-28.94927 l 2.28112,-20.20812 4.6918,3.81218 c 2.58056,2.09669 6.18238,3.81218 8.00424,3.81218 7.33868,0 12.15175,5.81264 12.02422,14.52125 -0.20101,13.71289 -4.73511,36.51762 -6.6502,33.44764 z M 234.126,582.99776 c -40.43829,-13.96806 -68.42451,-59.21078 -65.28961,-105.54779 2.02516,-29.93359 12.22725,-52.71741 33.01273,-73.72497 29.13016,-29.4416 71.40654,-38.80836 111.78353,-24.76656 44.10573,15.33851 84.03202,62.86314 106.63953,126.93417 6.75312,19.13879 14.15407,52.49144 14.15407,63.78607 0,7.05917 -0.0962,7.14173 -8.44638,7.2458 -4.64549,0.0573 -15.60099,1.29275 -24.34549,2.74399 -8.7445,1.45133 -15.95018,2.52182 -16.01263,2.37893 -0.0626,-0.14279 -2.60833,-6.76282 -5.65767,-14.71096 -13.56895,-35.36847 -40.64133,-56.9518 -66.62699,-53.11792 -27.83989,4.10738 -44.15442,24.63602 -44.61685,56.1415 l -0.24061,16.39585 -11.92437,-0.0644 c -6.55838,-0.0353 -16.65155,-1.69759 -22.42926,-3.69338 z m 15.31196,-95.29111 5.85798,-11.60456 12.10633,1.94966 c 6.65839,1.07234 12.74737,1.30854 13.53102,0.52497 0.78357,-0.78357 -2.80775,-5.42368 -7.98068,-10.31129 l -9.40548,-8.88659 5.97273,-11.83203 c 3.2851,-6.50757 5.08544,-11.83194 4.00084,-11.83194 -1.08459,0 -6.91303,2.4233 -12.95217,5.38514 l -10.9801,5.38523 -10.18199,-9.85679 -10.18198,-9.85679 1.20604,9.43863 c 0.66336,5.19136 1.72308,11.49881 2.35503,14.01675 0.99305,3.95656 -0.35051,5.36247 -9.89868,10.35794 -6.07628,3.1789 -11.04776,6.41434 -11.04776,7.1898 0,1.37292 3.19487,2.18506 18.23173,4.63438 l 7.30111,1.18929 1.3768,12.85629 c 0.75729,7.07109 2.15411,12.85648 3.10411,12.85648 0.94992,0 4.36326,-5.22206 7.58512,-11.60457 z m 482.05198,82.88013 c -0.0794,-26.21745 -8.38253,-41.17087 -28.66985,-51.63281 -12.12812,-6.25435 -31.39708,-6.26087 -43.46355,-0.0132 -16.41093,8.49508 -34.40003,32.40742 -41.22097,54.79373 -1.34982,4.4301 -3.38283,7.84988 -4.51796,7.59957 -1.13505,-0.25031 -12.4048,-1.53309 -25.04386,-2.85053 -26.61038,-2.77381 -24.86411,-0.25384 -19.90824,-28.72904 3.73941,-21.48578 13.99178,-52.74765 24.52948,-74.79677 24.02532,-50.27039 60.36072,-86.1976 99.03519,-97.92255 55.24876,-16.7498 114.31046,14.10953 133.91339,69.96879 5.23665,14.92194 7.19444,45.84301 3.82727,60.44743 -10.11206,43.85922 -44.65236,76.64624 -83.08883,78.87126 l -15.34171,0.88818 -0.0503,-16.62253 z m 29.90901,-81.90084 c 0.73014,-5.84396 1.9783,-11.67821 2.77367,-12.96522 0.79538,-1.28693 6.64463,-3.18596 12.99834,-4.22002 6.3537,-1.03415 11.93956,-2.26754 12.41297,-2.7409 0.47341,-0.47346 -4.37724,-3.85417 -10.7792,-7.51279 l -11.63996,-6.65196 1.45025,-7.94955 c 0.79765,-4.37225 1.50179,-10.59891 1.56479,-13.83699 l 0.11453,-5.88744 -9.9957,9.84541 -9.9957,9.84541 -10.92933,-5.72232 c -6.0111,-3.14716 -11.44254,-5.20892 -12.06991,-4.58164 -0.62727,0.62728 1.26656,6.22877 4.20856,12.44766 l 5.34915,11.30707 -9.61636,9.82557 -9.61636,9.82565 14.30895,-1.37892 14.30902,-1.379 5.482,11.17758 c 3.01509,6.14772 6.12567,11.17768 6.91237,11.17768 0.78671,0 2.02777,-4.78141 2.75792,-10.62528 z M 448.4213,559.53127 c -4.20714,-26.27866 -15.1577,-58.35109 -36.97961,-108.30749 -22.50423,-51.5185 -29.13599,-71.24637 -32.70518,-97.29015 -5.56886,-40.63577 10.15032,-85.7678 41.69549,-119.71422 4.96425,-5.34201 19.75768,-18.25537 32.87443,-28.69648 13.11676,-10.44103 28.98755,-23.86604 35.26854,-29.83339 l 11.42005,-10.84983 10.4412,9.84497 c 5.7427,5.41486 21.1732,18.42754 34.28996,28.91725 37.7959,30.22623 54.76205,50.25186 66.64021,78.65729 19.45533,46.52585 15.0665,84.70278 -18.29515,159.14041 -25.81737,57.60456 -34.92773,83.45545 -40.31763,114.40139 -1.69891,9.75466 -3.30582,17.80361 -3.57086,17.88643 -0.26505,0.0829 -9.05629,-0.13097 -19.53622,-0.47495 l -19.05446,-0.62569 -1.31453,-99.73727 c -0.72298,-54.85555 -1.68295,-101.97313 -2.13312,-104.70575 -0.45017,-2.73279 -1.37089,-19.72487 -2.04597,-37.76036 -1.34082,-35.81749 -3.3143,-66.03304 -4.2516,-65.09574 -1.62094,1.62094 -2.96299,15.7153 -4.68465,49.19672 -3.32267,64.61867 -4.00649,86.67494 -5.37562,173.39935 l -1.34125,84.96068 h -16.41632 c -9.02903,0 -17.70103,0.49295 -19.27099,1.09535 -2.21638,0.85052 -3.40946,-2.37081 -5.33672,-14.40852 z M 79.678009,536.38573 c -3.279188,-0.98201 -9.092274,-2.82989 -12.918037,-4.10659 l -6.955805,-2.32116 -0.56545,-22.64932 c -0.539519,-21.61535 -0.403515,-22.50476 2.98116,-19.48302 1.950543,1.74142 7.332066,4.17415 11.959038,5.40604 4.641613,1.23577 9.351934,3.99502 10.508236,6.15548 1.156126,2.16028 1.839499,11.73166 1.524361,21.34978 l -0.57136,17.43414 z M 938.2284,529.469 c -1.09306,-1.01985 -5.56471,-2.96969 -9.93696,-4.333 -13.45218,-4.19453 -14.2309,-5.66835 -14.66546,-27.75645 l -0.38887,-19.77118 5.53975,2.88961 c 3.04696,1.58928 7.45299,2.89517 9.79126,2.90187 2.33827,0.009 6.17612,1.57728 8.5285,3.49016 3.95383,3.21507 4.23334,5.0259 3.69814,23.95565 -0.38279,13.5402 -1.25226,19.8495 -2.56636,18.62334 z M 83.933218,483.86581 c -0.792566,-1.28234 -4.966366,-3.38776 -9.275112,-4.67866 -13.939658,-4.17644 -14.840532,-6.49981 -11.866781,-30.60355 l 2.583995,-20.94494 4.170273,3.71649 c 2.293641,2.04403 7.110948,4.87816 10.705186,6.298 9.553736,3.77417 10.55463,7.08335 8.214155,27.1597 -2.458487,21.08835 -2.684985,22.041 -4.531716,19.05296 z M 937.80548,473.25094 c -1.21645,-1.21637 -6.51648,-3.01582 -11.77805,-3.99881 -5.26148,-0.9829 -10.58964,-2.89429 -11.84032,-4.24736 -1.25067,-1.35317 -3.34146,-9.61477 -4.64626,-18.35927 -1.30478,-8.7445 -2.84667,-17.54095 -3.42639,-19.54759 -0.9036,-3.12775 -0.47854,-3.34049 2.97812,-1.49058 2.21771,1.18691 7.27986,2.15799 11.2493,2.15799 14.08281,0 15.61961,3.08259 19.56744,39.25085 1.02127,9.35626 1.0203,9.35899 -2.10384,6.23477 z M 90.608635,429.76287 c 0,-1.08742 -4.052879,-3.88221 -9.006279,-6.21069 -13.014792,-6.11764 -13.538788,-8.16644 -7.624978,-29.81098 2.80132,-10.2529 5.410982,-18.97165 5.799238,-19.37507 0.388168,-0.40334 2.174571,0.73541 3.969794,2.53054 1.795223,1.79523 5.835753,4.59399 8.978936,6.21934 9.207024,4.76112 10.048094,8.40484 5.755756,24.93396 -2.106304,8.11079 -3.844903,16.75915 -3.863689,19.21852 -0.01852,2.45937 -0.928393,4.47156 -2.021368,4.47156 -1.093062,0 -1.98741,-0.88967 -1.98741,-1.97718 z M 929.28519,415.84103 c -1.63964,-1.05963 -7.05821,-1.94022 -12.04133,-1.95698 -4.98312,-0.0159 -10.42997,-1.14837 -12.10406,-2.51467 -1.67409,-1.36631 -4.98,-9.35476 -7.34648,-17.75193 -2.36645,-8.39734 -4.76687,-16.47761 -5.33429,-17.95628 -1.37085,-3.57237 24.6647,-2.71974 28.06296,0.91904 1.84391,1.97436 13.38109,41.33502 12.08155,41.21771 -0.18549,-0.0168 -1.6788,-0.89734 -3.31835,-1.95689 z M 95.023574,368.95876 84.533066,358.64165 88.403458,348.9842 c 11.933992,-29.77791 12.678482,-31.11591 14.962072,-26.8876 1.1817,2.18798 4.61348,5.91134 7.62639,8.27404 9.9838,7.82943 10.2536,10.31667 3.18702,29.37387 -3.537,9.53839 -6.93349,17.83501 -7.54789,18.43697 -0.6144,0.60197 -5.83779,-3.54828 -11.607476,-9.22272 z m 807.094086,-8.589 c -7.83724,-0.64307 -14.64819,-1.61636 -15.13549,-2.16293 -0.48727,-0.54658 -4.54889,-8.86939 -9.02582,-18.49537 -6.637,-14.27023 -7.51185,-17.41411 -4.73837,-17.02806 1.8708,0.26027 7.16462,-0.20877 11.76405,-1.04226 11.74243,-2.12827 15.60428,-0.28727 19.53779,9.31409 6.17863,15.08141 12.55267,31.23277 12.19652,30.90502 -0.19202,-0.17658 -6.76146,-0.84743 -14.59868,-1.49049 z M 117.91103,318.33761 c -5.17875,-5.24217 -9.41596,-10.65448 -9.41596,-12.02722 0,-1.37283 4.64187,-10.33669 10.31516,-19.91971 l 10.31517,-17.42391 3.312,5.36909 c 1.82159,2.95311 5.22867,7.07294 7.57126,9.15516 6.16227,5.47731 5.3182,11.24762 -4.2112,28.78725 l -8.47055,15.59085 z m 745.09376,-10.79595 c -1.8749,-1.87495 -5.17746,-6.66933 -7.33905,-10.65421 -2.1616,-3.98505 -6.10785,-10.50153 -8.76946,-14.48111 l -4.83929,-7.23575 4.36323,0.0958 c 2.39976,0.0529 8.70618,-1.15013 14.0142,-2.6729 9.56901,-2.7454 9.68793,-2.72256 13.99869,2.68366 2.39122,2.9988 7.67455,11.61188 11.74072,19.1402 7.21148,13.35162 7.28257,13.68634 2.89411,13.63519 -2.47441,-0.0291 -8.5839,0.61122 -13.5766,1.42266 -7.28236,1.18347 -9.75186,0.80095 -12.48655,-1.93369 z M 152.21757,279.4011 c 0,-2.17122 -2.26551,-5.91752 -5.03446,-8.32511 -5.76501,-5.0125 -9.54553,-13.47096 -7.5433,-16.87689 0.74926,-1.27449 6.245,-8.70781 12.21278,-16.5181 l 10.85046,-14.20073 6.68159,9.92885 c 3.67485,5.46082 6.6815,11.57325 6.6815,13.58298 0,2.0099 -5.00376,10.63983 -11.11955,19.17732 -13.50289,18.85011 -12.72902,18.04581 -12.72902,13.23168 z m 679.05636,-19.8712 c -2.7407,-3.11346 -8.58873,-10.05515 -12.99562,-15.42591 l -8.0125,-9.76507 10.02238,-4.64346 c 15.82042,-7.32969 17.36962,-6.74757 31.0881,11.68068 l 12.15206,16.32414 -9.35353,2.65447 c -18.12275,5.14303 -17.63184,5.16067 -22.90089,-0.82485 z M 186.0031,236.62357 c 0,-1.32803 -2.26012,-5.67602 -5.02246,-9.66205 -8.81885,-12.72576 -8.32996,-14.77208 7.40686,-31.00141 7.80253,-8.04693 14.92962,-14.63062 15.8379,-14.63062 0.90837,0 1.65155,1.82442 1.65155,4.05394 0,2.22969 1.84126,7.66308 4.09159,12.07422 2.25043,4.41115 3.81554,9.19203 3.47799,10.62431 -0.89346,3.79093 -27.44343,31.40335 -27.44343,28.54161 z m 597.97422,-28.45085 c -11.42533,-11.15342 -12.63456,-12.99636 -9.23515,-14.07531 2.15139,-0.68284 7.07433,-3.38776 10.93984,-6.01101 3.86553,-2.62324 8.44749,-4.7695 10.18209,-4.7695 1.73462,0 9.57575,6.37907 17.42471,14.1755 l 14.27082,14.17569 -9.25565,4.69629 c -14.91789,7.56915 -19.23747,6.53836 -34.32666,-8.19166 z M 223.76338,197.29889 c 0,-2.23278 -1.78861,-7.39671 -3.97474,-11.47552 -6.73318,-12.5625 -5.96814,-13.9737 16.81701,-31.01862 l 11.76782,-8.80324 3.52915,10.21127 c 5.45076,15.7713 4.95181,17.54492 -7.76848,27.61339 -6.28513,4.97483 -13.43974,10.95461 -15.89911,13.28847 -4.44255,4.21605 -4.47165,4.2172 -4.47165,0.18425 z m 517.85668,-24.07154 c -8.666,-6.47441 -14.47909,-11.78026 -12.91803,-11.79093 1.56105,-0.015 6.76502,-3.14071 11.56434,-6.9558 4.79938,-3.81509 10.01549,-6.93658 11.59138,-6.93658 1.5759,0 9.94831,5.47942 18.60538,12.17636 l 15.74012,12.17645 -10.43868,6.65293 c -5.74128,3.65898 -12.22734,6.60697 -14.41345,6.55097 -2.18613,-0.0556 -11.06511,-5.39908 -19.73106,-11.8734 z m -474.95594,-8.52188 c 0.6593,-1.71814 -0.31567,-7.08899 -2.16654,-11.9354 -1.85088,-4.84651 -2.78368,-10.64407 -2.07279,-12.88364 0.74802,-2.35706 8.57286,-8.30156 18.57898,-14.11465 l 17.28658,-10.04263 1.63576,13.10202 c 0.89964,7.20612 1.20084,14.2354 0.66935,15.62031 -0.5315,1.3851 -5.73918,5.28706 -11.57264,8.67086 -5.83346,3.38397 -13.52026,8.07726 -17.08187,10.42973 -4.98056,3.2896 -6.19878,3.55596 -5.27683,1.1534 z m 431.85154,-18.9436 -17.1257,-9.19794 9.53089,-9.41526 c 5.24208,-5.17857 10.60667,-9.41553 11.92138,-9.41553 1.31471,0 10.42859,4.59999 20.2531,10.22203 15.28629,8.74777 17.3268,10.50533 14.14754,12.18615 -2.04333,1.0801 -6.39811,4.39977 -9.6773,7.37696 -3.27919,2.97711 -7.30367,5.86936 -8.94322,6.42723 -1.63963,0.55795 -10.68763,-3.12466 -20.10669,-8.18364 z m -384.54944,-9.2834 c 0.66115,-1.7229 0.22879,-6.99753 -0.96076,-11.72169 -1.52339,-6.05008 -1.54279,-9.74743 -0.0653,-12.50756 1.77494,-3.31641 32.38766,-18.362356 37.36726,-18.365743 2.18145,-0.0018 1.63399,25.653803 -0.59438,27.851653 -0.95574,0.94277 -9.66011,5.35039 -19.34306,9.79488 -12.51214,5.74305 -17.25765,7.17463 -16.40335,4.94846 z m 338.07872,-12.11004 c -6.55838,-2.76507 -13.93798,-5.81776 -16.39921,-6.78381 l -4.47491,-1.7566 6.46233,-8.77925 c 10.05206,-13.656276 11.88186,-13.942671 33.11839,-5.18223 18.03831,7.44104 22.69404,9.90455 18.71869,9.90455 -1.0951,0 -6.07328,4.02439 -11.06258,8.94321 -4.98921,4.91883 -10.27891,8.88439 -11.75485,8.81242 -1.47594,-0.0723 -8.04949,-2.39313 -14.60786,-5.15829 z M 364.85612,103.97889 c 0.56201,-7.564894 1.59995,-14.332515 2.30652,-15.038988 1.49067,-1.490783 35.18281,-10.954458 38.99931,-10.954458 1.9232,0 2.05153,0.965455 0.51085,3.844136 -1.13152,2.114277 -2.05735,7.817977 -2.05735,12.674728 0,4.856759 -1.11785,9.698192 -2.48424,10.758852 -1.99994,1.5524 -34.89669,12.46998 -37.57435,12.46998 -0.39752,0 -0.26284,-6.18934 0.29926,-13.75425 z m 232.14452,2.9188 c -15.70154,-3.80613 -23.87256,-7.05095 -17.75589,-7.05095 1.31409,0 4.08736,-3.961608 6.16288,-8.803471 5.40993,-12.620935 8.65904,-13.746755 26.182,-9.07219 28.93321,7.718488 27.11003,6.943024 22.34458,9.504502 -2.30951,1.241389 -5.34201,5.016393 -6.73892,8.388993 -4.35346,10.510226 -10.217,11.875826 -30.19465,7.033116 z M 416.04291,101.6932 c 1.36639,-1.45276 2.48424,-5.997769 2.48424,-10.099995 0,-14.787824 2.42894,-16.976683 21.60547,-19.470062 9.43167,-1.2262 19.03047,-2.495734 21.33064,-2.821042 3.89165,-0.550535 3.99599,-0.235106 1.50275,4.542794 -1.47356,2.823847 -2.68481,7.494584 -2.69151,10.379456 -0.022,9.236824 -5.51532,13.1495 -21.87351,15.578616 -8.19793,1.217353 -17.14114,2.734963 -19.87384,3.372463 -4.07573,0.951 -4.52211,0.68466 -2.48424,-1.48223 z m 124.40707,-4.290314 -16.20049,-1.889932 2.66425,-5.285826 c 1.46536,-2.907134 3.70934,-8.162592 4.98674,-11.678624 1.27741,-3.516172 4.10668,-6.959236 6.28734,-7.651411 2.18066,-0.692035 12.86997,-0.167448 23.75403,1.165765 19.3277,2.36765 19.69797,2.509149 15.88093,6.065267 -2.14952,2.002546 -4.95772,6.820983 -6.24041,10.70771 -2.30343,6.979283 -7.23002,11.272685 -12.31704,10.733949 -1.43819,-0.15226 -9.90513,-1.127443 -18.81535,-2.166898 z M 470.1992,93.997114 c 0,-1.02589 0.77361,-2.343474 1.7192,-2.927905 0.94559,-0.58429 2.20667,-4.696686 2.80238,-9.138367 1.77149,-13.20743 3.12413,-13.882213 27.82798,-13.882213 20.73944,0 21.75788,0.188228 18.82161,3.47785 -1.70728,1.912926 -4.1267,7.318148 -5.37649,12.011587 -1.54421,5.798921 -3.7126,9.081178 -6.76644,10.242225 -6.17224,2.34672 -39.02824,2.529197 -39.02824,0.216823 z"
     style="fill:#4b1671;fill-opacity:1;stroke-width:1.98738527" />
</svg>
