<?xml version="1.0" encoding="UTF-8" standalone="no"?>
<!-- Created with Inkscape (http://www.inkscape.org/) -->

<svg
   xmlns:dc="http://purl.org/dc/elements/1.1/"
   xmlns:cc="http://creativecommons.org/ns#"
   xmlns:rdf="http://www.w3.org/1999/02/22-rdf-syntax-ns#"
   xmlns:svg="http://www.w3.org/2000/svg"
   xmlns="http://www.w3.org/2000/svg"
   xmlns:sodipodi="http://sodipodi.sourceforge.net/DTD/sodipodi-0.dtd"
   xmlns:inkscape="http://www.inkscape.org/namespaces/inkscape"
   width="66.460144mm"
   height="66.454987mm"
   viewBox="0 0 66.460143 66.454987"
   version="1.1"
   id="svg1007"
   inkscape:version="0.92.4 (5da689c313, 2019-01-14)"
   sodipodi:docname="skautky.svg">
  <defs
     id="defs1001" />
  <sodipodi:namedview
     id="base"
     pagecolor="#ffffff"
     bordercolor="#666666"
     borderopacity="1.0"
     inkscape:pageopacity="0.0"
     inkscape:pageshadow="2"
     inkscape:zoom="4"
     inkscape:cx="35.18867"
     inkscape:cy="128.73359"
     inkscape:document-units="mm"
     inkscape:current-layer="layer1"
     showgrid="false"
     fit-margin-top="0"
     fit-margin-left="0"
     fit-margin-right="0"
     fit-margin-bottom="0"
     inkscape:window-width="3840"
     inkscape:window-height="2080"
     inkscape:window-x="-11"
     inkscape:window-y="-11"
     inkscape:window-maximized="1" />
  <metadata
     id="metadata1004">
    <rdf:RDF>
      <cc:Work
         rdf:about="">
        <dc:format>image/svg+xml</dc:format>
        <dc:type
           rdf:resource="http://purl.org/dc/dcmitype/StillImage" />
        <dc:title></dc:title>
      </cc:Work>
    </rdf:RDF>
  </metadata>
  <g
     inkscape:label="Layer 1"
     inkscape:groupmode="layer"
     id="layer1"
     transform="translate(-73.197456,-139.64323)">
    <g
       id="g842"
       transform="translate(-4.7652658e-7,0.39687499)">
      <path
         style="fill:#fc8d02;stroke-width:0.04153857"
         d="m 103.47481,205.6392 c -6.190501,-0.56473 -12.028796,-2.80785 -16.97081,-6.52031 -2.494408,-1.87381 -4.784483,-4.16185 -6.650963,-6.64506 -3.56733,-4.74605 -5.780931,-10.31318 -6.449714,-16.22081 -0.317114,-2.8012 -0.266949,-5.80129 0.144125,-8.61925 0.944286,-6.47318 3.825082,-12.5641 8.257845,-17.45972 0.614037,-0.67815 2.067482,-2.11059 2.707159,-2.66803 5.306553,-4.62432 11.664023,-7.3928 18.588508,-8.09472 2.30074,-0.23322 4.80869,-0.21875 7.1031,0.041 9.11216,1.03156 17.30677,5.72723 22.86655,13.10298 3.71115,4.92332 5.97638,10.83875 6.52168,17.03081 0.0873,0.9909 0.087,4.86078 -4.1e-4,5.85694 -0.58375,6.65441 -3.17537,12.99792 -7.41731,18.15534 -1.32469,1.61057 -2.8981,3.1927 -4.48283,4.50767 -5.20998,4.32311 -11.57793,6.94539 -18.29774,7.53487 -0.92902,0.0815 -5.02013,0.0803 -5.91925,-0.002 z"
         id="path850"
         inkscape:connector-curvature="0" />
      <path
         style="fill:#a2774b;stroke-width:0.04153857"
         d="m 103.47481,205.6392 c -6.190501,-0.56473 -12.028796,-2.80785 -16.97081,-6.52031 -2.494408,-1.87381 -4.784483,-4.16185 -6.650963,-6.64506 -3.56733,-4.74605 -5.780931,-10.31318 -6.449714,-16.22081 -0.317114,-2.8012 -0.266949,-5.80129 0.144125,-8.61925 0.944286,-6.47318 3.825082,-12.5641 8.257845,-17.45972 0.614037,-0.67815 2.067482,-2.11059 2.707159,-2.66803 5.306553,-4.62432 11.664023,-7.3928 18.588508,-8.09472 2.30074,-0.23322 4.80869,-0.21875 7.1031,0.041 9.11216,1.03156 17.30677,5.72723 22.86655,13.10298 3.71115,4.92332 5.97638,10.83875 6.52168,17.03081 0.0873,0.9909 0.087,4.86078 -4.1e-4,5.85694 -0.58375,6.65441 -3.17537,12.99792 -7.41731,18.15534 -1.32469,1.61057 -2.8981,3.1927 -4.48283,4.50767 -5.20998,4.32311 -11.57793,6.94539 -18.29774,7.53487 -0.92902,0.0815 -5.02013,0.0803 -5.91925,-0.002 z m 5.73232,-4.66935 c 5.16601,-0.52866 10.20181,-2.46688 14.4257,-5.55228 1.64624,-1.20252 3.35845,-2.78559 4.53169,-4.18989 2.2953,-2.74733 4.20888,-5.98077 5.27305,-8.91003 1.0669,-2.93681 1.57437,-5.93611 1.63404,-9.65771 0.039,-2.43338 -0.0919,-4.00415 -0.50636,-6.07616 -0.89357,-4.46709 -3.1854,-8.83522 -6.91198,-13.17395 -4.43462,-5.16306 -11.83684,-8.72115 -19.18675,-9.22267 -0.80355,-0.0548 -2.88159,-0.0555 -3.80786,-0.001 -6.947187,0.40681 -12.748255,2.99231 -17.824793,7.94439 -5.12199,4.99642 -7.910487,10.74357 -8.550133,17.62198 -0.232214,2.49711 -0.189303,4.37596 0.146096,6.39694 1.17019,7.05106 5.360582,14.40784 10.778297,18.92273 3.617225,3.01442 7.800878,4.7782 11.587443,4.88512 1.96896,0.0556 3.57407,-0.26911 5.1491,-1.04164 1.78053,-0.87331 3.48446,-2.49067 4.1169,-3.9077 0.37573,-0.84186 0.53435,-1.6039 0.53175,-2.55463 -0.003,-1.26222 -0.30378,-2.41522 -0.97381,-3.73847 -0.4,-0.78997 -0.6466,-1.16869 -1.50621,-2.31319 l -0.75464,-1.00474 -0.11808,0.11166 c -0.0649,0.0614 -0.1718,0.17897 -0.23745,0.26124 l -0.11935,0.14959 0.65617,1.30426 c 0.52139,1.03637 0.6999,1.43651 0.86906,1.94811 0.66285,2.00464 0.51354,3.64072 -0.46602,5.10662 -0.65406,0.97879 -1.72378,1.87014 -2.99356,2.49441 -0.78202,0.38447 -1.42847,0.50337 -2.74155,0.50426 -4.311571,0.003 -9.10132,-2.06483 -13.132529,-5.66938 -4.708848,-4.21048 -7.622368,-10.21301 -8.198741,-16.89133 -0.118787,-1.37637 -0.118747,-3.84093 8.3e-5,-5.25463 0.380516,-4.52687 1.772829,-8.19449 4.438978,-11.69311 1.41142,-1.85212 3.54272,-4.0615 5.448335,-5.64794 3.554807,-2.9594 7.214017,-4.54931 11.755414,-5.10767 1.50215,-0.18469 2.30065,-0.22702 4.29924,-0.2279 2.41034,-0.001 3.6875,0.0965 5.48309,0.41873 3.71766,0.66723 6.9117,2.20756 10.07311,4.85777 0.85567,0.71731 1.14793,0.98672 2.19634,2.02461 4.68232,4.63535 6.87596,9.13145 7.64353,15.66628 0.19797,1.68549 0.23323,2.3322 0.23323,4.27847 0,2.01787 -0.0345,2.5345 -0.25398,3.80078 -0.56395,3.25411 -1.88429,6.11435 -4.4185,9.57176 -3.43914,4.69201 -7.98643,8.08626 -13.04372,9.73628 -1.17538,0.38349 -1.86817,0.54698 -3.55155,0.83813 -0.86912,0.15032 -1.00491,0.18401 -1.05923,0.26277 -0.34959,0.50688 -0.90924,0.87717 -2.53385,1.67649 -0.46835,0.23043 -1.14992,0.57894 -1.51459,0.77446 l -0.66305,0.3555 0.24766,0.0182 c 0.62253,0.0459 2.72135,-0.0105 3.54998,-0.0953 z m -2.02467,-12.82415 c -0.79936,-1.69127 -1.15293,-3.02776 -1.1462,-4.33266 0.005,-0.98541 0.20296,-1.78504 0.71955,-2.9077 0.57146,-1.24188 0.7067,-1.66718 0.7067,-2.22231 0,-0.20318 -0.0332,-0.46965 -0.0826,-0.6628 -0.0805,-0.3149 -0.38279,-0.97985 -0.53785,-1.18327 l -0.0773,-0.10145 -0.18797,0.0997 c -0.31483,0.16701 -0.31515,0.16746 -0.27514,0.37485 0.13466,0.69789 -0.0739,1.31806 -0.69106,2.05449 -1.06713,1.27344 -1.64879,2.32854 -1.935,3.51001 -0.0344,0.14219 -0.0546,0.4716 -0.0535,0.87231 0.002,0.72177 0.0652,1.046 0.32979,1.69506 0.42003,1.03026 1.35948,2.19229 2.61758,3.23775 l 0.45693,0.3797 0.18411,-0.18245 0.18411,-0.18244 z m 13.65547,0.15216 c 1.24466,-0.1611 2.69567,-0.84417 3.56518,-1.67831 0.59956,-0.57518 0.97601,-1.24459 1.20453,-2.14189 0.10442,-0.41004 0.1109,-0.49088 0.10832,-1.35 -0.003,-0.83962 -0.0121,-0.95603 -0.11765,-1.43308 -0.28685,-1.29612 -0.7941,-2.48512 -1.5283,-3.58235 -0.26847,-0.40121 -0.8275,-1.1076 -1.02301,-1.29267 l -0.12555,-0.11884 -0.39792,0.21514 c -0.21885,0.11833 -0.39791,0.23016 -0.39791,0.2485 0,0.0183 0.15478,0.26513 0.34395,0.5484 0.79193,1.18587 1.159,2.16693 1.16344,3.10951 0.003,0.56866 -0.0676,0.87107 -0.31186,1.34131 -0.48645,0.93662 -1.68574,1.71089 -3.04399,1.96523 -0.49095,0.0919 -1.25134,0.091 -1.80693,-0.002 -2.34631,-0.39355 -4.96302,-2.39036 -6.79179,-5.18283 -0.16874,-0.25766 -0.33215,-0.50386 -0.36313,-0.54712 -0.0535,-0.0747 -0.0846,-0.0623 -0.62455,0.24923 -0.31253,0.18034 -0.56858,0.34169 -0.56901,0.35858 -0.001,0.0584 0.71698,1.54965 0.98582,2.04623 1.0362,1.91395 2.26722,3.59503 3.4702,4.73886 1.49377,1.42033 3.15055,2.30934 4.66652,2.50403 0.39366,0.0505 1.21887,0.0528 1.59364,0.004 z m -27.744589,-0.308 c 1.002436,-0.13346 2.020231,-0.5061 3.001946,-1.09908 1.926282,-1.16353 3.886501,-3.35765 5.477253,-6.13082 0.60767,-1.05937 0.88032,-1.60739 0.81757,-1.64332 -0.0317,-0.0181 -0.28976,-0.18167 -0.57349,-0.36337 l -0.51587,-0.33038 -0.30583,0.43685 c -0.50094,0.71555 -0.98201,1.27764 -1.732991,2.02483 -1.325111,1.31845 -2.656964,2.20318 -4.028524,2.67611 -0.82097,0.28309 -1.219828,0.35088 -2.060162,0.35016 -0.959248,-8.3e-4 -1.515283,-0.12648 -2.296023,-0.51883 -1.043533,-0.52443 -1.678276,-1.19963 -1.94716,-2.07128 -0.135,-0.43764 -0.134805,-1.15791 4.53e-4,-1.66154 0.211603,-0.78792 0.64048,-1.61 1.275908,-2.4457 l 0.335492,-0.44123 -0.3978,-0.25778 -0.3978,-0.25778 -0.263373,0.25778 c -1.175496,1.15052 -2.212982,2.94472 -2.623874,4.53766 -0.484792,1.87944 -0.262996,3.52907 0.63481,4.72145 0.299522,0.39781 0.63594,0.70459 1.175138,1.07165 1.411127,0.96061 2.904514,1.34697 4.424329,1.14462 z m 23.583729,-12.86872 c 0.15235,0.11144 0.57009,0.42014 0.9283,0.68599 l 0.65129,0.48336 -0.0815,-0.23681 c -0.17689,-0.51405 -0.61879,-1.90637 -0.61879,-1.94967 0,-0.0253 0.41042,-0.35117 0.91204,-0.72423 l 0.91203,-0.6783 -1.15357,-0.011 -1.15358,-0.011 -0.30397,-0.98591 c -0.16718,-0.54225 -0.31754,-1.02298 -0.33412,-1.06828 -0.0216,-0.0589 -0.10931,0.16562 -0.30839,0.78923 -0.15304,0.47939 -0.30663,0.96011 -0.34132,1.06827 l -0.0631,0.19665 -1.14957,0.011 -1.14958,0.011 0.92424,0.6786 c 0.50833,0.37323 0.92423,0.70076 0.92423,0.72784 0,0.0271 -0.15888,0.52507 -0.35308,1.10664 -0.19419,0.58157 -0.35307,1.06211 -0.35307,1.06787 0,0.006 0.41275,-0.29876 0.91722,-0.67672 l 0.91724,-0.68719 z m -20.670287,0.23078 c 0.313328,-0.23547 0.584368,-0.42801 0.602309,-0.42786 0.01794,1.6e-4 0.434038,0.29813 0.924658,0.66219 0.49062,0.36407 0.896367,0.65761 0.90166,0.65231 0.0053,-0.005 -0.148451,-0.49058 -0.341651,-1.07841 -0.193201,-0.58784 -0.351274,-1.07638 -0.351274,-1.08566 0,-0.009 0.412272,-0.322 0.91616,-0.69494 l 0.916159,-0.67807 -1.141499,-0.011 -1.1415,-0.011 -0.06308,-0.19665 c -0.03469,-0.10816 -0.178252,-0.57051 -0.319019,-1.02743 -0.140766,-0.45693 -0.268855,-0.84471 -0.284641,-0.86176 -0.01579,-0.017 -0.17855,0.44093 -0.361697,1.0177 l -0.332995,1.04868 -1.153806,0.011 -1.153805,0.011 0.886398,0.64788 c 0.487519,0.35633 0.909699,0.66973 0.938178,0.69645 0.04098,0.0384 -0.02186,0.26911 -0.301154,1.10555 -0.194115,0.58133 -0.352936,1.07154 -0.352936,1.08934 0,0.0337 0.254536,-0.14863 1.213536,-0.86933 z m 28.227517,-0.0524 c 1.06558,-0.52039 1.87605,-1.0873 2.70424,-1.89155 0.58138,-0.56456 0.89864,-0.94215 1.28176,-1.52547 0.93814,-1.42838 1.20832,-2.98971 0.7496,-4.33183 -0.28234,-0.82604 -1.05562,-1.94432 -1.80382,-2.60859 -1.24136,-1.10211 -2.7532,-1.61404 -4.58353,-1.55206 -0.81641,0.0276 -1.31157,0.0997 -2.16677,0.31518 -2.22695,0.56116 -4.68878,1.87856 -7.13305,3.81713 l -0.54038,0.42857 0.33106,0.50604 c 0.18209,0.27833 0.34714,0.53253 0.36677,0.56489 0.0285,0.0469 0.14386,-0.005 0.57018,-0.25497 1.57879,-0.92699 3.14374,-1.51802 4.83372,-1.82556 0.7023,-0.1278 2.38142,-0.14005 2.96477,-0.0216 1.52949,0.3105 2.61451,0.9869 3.47468,2.16613 0.78525,1.0765 0.91702,2.25334 0.37003,3.30472 -0.43908,0.84397 -1.44969,1.74909 -2.63486,2.35984 -0.41148,0.21205 -0.40268,0.16236 -0.10657,0.60228 l 0.2641,0.39234 0.23648,-0.0799 c 0.13006,-0.0439 0.49978,-0.20845 0.82159,-0.36561 z m -34.367301,-0.37653 c 0.150661,-0.20604 0.273929,-0.3818 0.273929,-0.39058 0,-0.009 -0.184559,-0.12938 -0.410131,-0.268 -1.419587,-0.87236 -2.310758,-1.84615 -2.627818,-2.87142 -0.134606,-0.43527 -0.134209,-1.09337 9.26e-4,-1.53693 0.259582,-0.85203 0.929376,-1.74377 1.768244,-2.35417 0.557578,-0.40571 1.385048,-0.74839 2.204904,-0.91309 0.57965,-0.11645 2.06227,-0.10521 2.760807,0.0209 1.846116,0.33335 3.57187,1.04431 5.324371,2.19348 0.221128,0.145 0.411163,0.26363 0.422302,0.26363 0.01114,0 0.192998,-0.23759 0.404134,-0.52798 l 0.383883,-0.52798 -0.26618,-0.24572 c -0.763645,-0.70497 -2.006502,-1.67256 -2.940071,-2.2889 -1.976699,-1.30503 -3.770453,-2.07498 -5.633829,-2.41829 -0.593865,-0.10941 -2.210698,-0.11007 -2.720777,-0.001 -1.640817,0.35051 -2.955369,1.21682 -3.958873,2.60896 -0.342453,0.47507 -0.700492,1.18853 -0.820816,1.63562 -0.125848,0.46762 -0.155218,1.35484 -0.06251,1.88838 0.396116,2.27975 2.546041,4.72533 5.210314,5.92685 0.220193,0.0993 0.403258,0.18063 0.406809,0.18075 0.0036,1.2e-4 0.129725,-0.16838 0.280385,-0.37443 z m 17.054991,-0.77138 c 0.45538,-0.13523 0.91343,-0.76282 1.05928,-1.45135 0.0811,-0.38303 0.0777,-0.64947 -0.0194,-1.49419 -0.0446,-0.38839 -0.12872,-1.11739 -0.18685,-1.62001 -0.0581,-0.50261 -0.1248,-1.08208 -0.14818,-1.28769 -0.0234,-0.20562 -0.089,-0.77573 -0.14589,-1.26693 -0.11899,-1.02807 -0.39978,-3.47242 -0.51771,-4.50693 -0.0443,-0.38839 -0.12752,-1.10804 -0.18499,-1.59924 -0.0575,-0.49119 -0.12707,-1.11739 -0.15467,-1.39154 -0.0392,-0.3894 -0.0575,-0.4712 -0.0837,-0.37385 -0.0184,0.0685 -0.3609,2.59201 -0.76107,5.60771 -0.40017,3.0157 -0.77524,5.81021 -0.83348,6.21002 -0.17364,1.19196 -0.1351,1.74441 0.16037,2.29878 0.1549,0.29062 0.48532,0.66698 0.67016,0.76335 0.35252,0.18378 0.76755,0.2243 1.14612,0.11187 z m -5.22786,-8.01078 0.0844,-0.10734 -0.44501,-0.4668 c -1.753428,-1.83926 -2.985228,-4.02344 -3.413303,-6.05235 -0.09686,-0.45909 -0.110175,-0.61878 -0.112649,-1.35138 -0.0038,-1.13438 0.120069,-1.7006 0.55743,-2.54745 0.79583,-1.54095 2.157042,-2.4272 3.461382,-2.25362 1.02971,0.13702 1.93934,0.69097 3.06805,1.86839 l 0.51829,0.54065 0.32134,-0.35111 0.32134,-0.35111 -0.20885,-0.30134 c -0.96891,-1.39804 -2.36438,-2.60794 -3.84639,-3.3349 -1.81743,-0.8915 -3.509019,-0.99708 -4.89249,-0.30537 -0.594649,0.29731 -1.064971,0.679 -1.604437,1.30207 -0.801145,0.92532 -1.262272,1.83666 -1.503516,2.97147 -0.07726,0.36342 -0.09252,0.56431 -0.09153,1.20462 0.001,0.66533 0.01612,0.8424 0.112399,1.31936 0.356954,1.76827 1.292157,3.53946 2.845502,5.38912 0.425915,0.50716 1.5345,1.63455 2.144692,2.18107 0.274924,0.24624 0.80465,0.69168 1.17717,0.98987 l 0.67731,0.54216 0.3722,-0.38934 c 0.20471,-0.21413 0.4102,-0.43763 0.45664,-0.49667 z m 10.92219,0.59304 c 3.33591,-2.57816 5.6506,-5.61439 6.33327,-8.30746 0.29589,-1.16731 0.30449,-2.4759 0.0227,-3.45213 -0.34188,-1.18431 -1.01494,-2.23091 -2.02699,-3.15199 -1.24604,-1.13403 -2.94455,-1.40704 -4.86643,-0.78221 -0.84174,0.27366 -2.01859,0.93169 -2.80939,1.57086 -0.46269,0.37397 -1.20677,1.11423 -1.5585,1.5505 -0.34359,0.42618 -0.6649,0.88025 -0.66217,0.93577 9.1e-4,0.0184 0.13803,0.18128 0.30473,0.36199 l 0.30307,0.32856 0.66105,-0.66139 c 0.74334,-0.74372 1.20396,-1.09415 1.82413,-1.38774 0.62023,-0.29363 0.86122,-0.35029 1.47462,-0.34675 0.45186,0.003 0.55946,0.0173 0.82928,0.11335 0.50511,0.17978 0.85248,0.41234 1.33607,0.89447 0.88567,0.88301 1.35502,1.87234 1.49291,3.14682 0.25961,2.39966 -1.14805,5.58832 -3.56678,8.07952 l -0.43017,0.44306 0.44973,0.48078 c 0.24735,0.26442 0.46191,0.48094 0.4768,0.48116 0.0149,2.1e-4 0.20034,-0.13351 0.41211,-0.29717 z"
         id="path848"
         inkscape:connector-curvature="0" />
      <path
         style="fill:#716b73;stroke-width:0.04153857"
         d="m 103.47481,205.6392 c -6.190501,-0.56473 -12.028796,-2.80785 -16.97081,-6.52031 -2.494408,-1.87381 -4.784483,-4.16185 -6.650963,-6.64506 -3.56733,-4.74605 -5.780931,-10.31318 -6.449714,-16.22081 -0.317114,-2.8012 -0.266949,-5.80129 0.144125,-8.61925 0.944286,-6.47318 3.825082,-12.5641 8.257845,-17.45972 0.614037,-0.67815 2.067482,-2.11059 2.707159,-2.66803 5.306553,-4.62432 11.664023,-7.3928 18.588508,-8.09472 2.30074,-0.23322 4.80869,-0.21875 7.1031,0.041 9.11216,1.03156 17.30677,5.72723 22.86655,13.10298 3.71115,4.92332 5.97638,10.83875 6.52168,17.03081 0.0873,0.9909 0.087,4.86078 -4.1e-4,5.85694 -0.58375,6.65441 -3.17537,12.99792 -7.41731,18.15534 -1.32469,1.61057 -2.8981,3.1927 -4.48283,4.50767 -5.20998,4.32311 -11.57793,6.94539 -18.29774,7.53487 -0.92902,0.0815 -5.02013,0.0803 -5.91925,-0.002 z m 5.69078,-4.64649 c 6.27812,-0.63693 12.28701,-3.3313 16.94325,-7.59731 2.32912,-2.13391 4.7437,-5.45266 6.32194,-8.68928 1.76695,-3.6236 2.58471,-7.36328 2.6705,-12.21234 0.0996,-5.63098 -1.34079,-10.4731 -4.54725,-15.28619 -0.91044,-1.36662 -2.07143,-2.88754 -3.03051,-3.97001 -3.96528,-4.47547 -10.03719,-7.70841 -16.44715,-8.75715 -2.48117,-0.40594 -5.00018,-0.47511 -7.65265,-0.21013 -5.064996,0.50598 -9.450427,2.18051 -13.407408,5.11945 -1.921291,1.42699 -3.963885,3.37208 -5.570654,5.30476 -3.536569,4.25389 -5.606351,9.25693 -6.160727,14.89157 -0.170984,1.73788 -0.192373,4.08721 -0.04822,5.29617 0.775923,6.50731 4.138695,13.4084 8.913438,18.29217 3.63186,3.71479 7.773005,5.99898 12.105822,6.67738 0.795859,0.12461 2.541089,0.15597 3.307129,0.0594 2.15648,-0.27178 3.91046,-1.03023 5.4661,-2.36363 0.95438,-0.81804 1.58905,-1.60466 2.00913,-2.49014 0.42239,-0.89036 0.55505,-1.49951 0.55812,-2.56286 0.002,-0.79871 -0.0294,-1.0713 -0.20812,-1.7894 -0.23357,-0.93842 -0.72755,-2.07088 -1.28506,-2.94599 -0.32246,-0.50617 -1.72278,-2.37585 -1.76649,-2.3586 -0.0163,0.006 -0.12868,0.12062 -0.24983,0.25378 l -0.22028,0.24211 0.66947,1.35712 c 0.78672,1.59482 0.92578,1.95154 1.13624,2.91482 0.1099,0.50299 0.15045,1.51431 0.08,1.99588 -0.18833,1.288 -0.88516,2.48421 -1.98174,3.40196 -0.78972,0.66094 -1.8427,1.27833 -2.50758,1.47028 -1.04465,0.30157 -2.77296,0.31106 -4.464458,0.0245 -3.064538,-0.51915 -6.169641,-1.92501 -9.065308,-4.10439 -5.386551,-4.0541 -8.810522,-10.06431 -9.705264,-17.03596 -0.187414,-1.4603 -0.212611,-1.91817 -0.21145,-3.84232 8.44e-4,-1.39573 0.01826,-2.01914 0.07371,-2.6377 0.474856,-5.29776 2.163888,-9.17157 5.822804,-13.35465 0.679997,-0.77741 2.383798,-2.49465 3.157794,-3.18271 3.445474,-3.0629 6.716979,-4.76339 10.696182,-5.55975 2.01721,-0.4037 3.69524,-0.54908 6.33463,-0.54879 1.74092,1.6e-4 2.7828,0.0561 4.05001,0.21731 5.2057,0.66229 9.1265,2.67736 13.45266,6.91393 2.44934,2.39861 4.13612,4.65349 5.40674,7.22771 1.36302,2.76141 2.13297,5.72327 2.48901,9.57464 0.41878,4.53019 0.0815,7.67689 -1.15893,10.81307 -0.76444,1.93272 -2.17236,4.30893 -3.81943,6.44621 -3.40403,4.41717 -7.76703,7.56965 -12.69389,9.17193 -1.09386,0.35574 -1.64446,0.48459 -3.42654,0.80187 -0.58236,0.10369 -1.0597,0.19181 -1.06076,0.19583 -10e-4,0.004 -0.0539,0.0849 -0.11737,0.17967 -0.26101,0.38966 -0.82009,0.75654 -2.24456,1.47292 -0.55086,0.27703 -1.30952,0.66506 -1.68593,0.86229 -0.66557,0.34874 -0.68041,0.35938 -0.54,0.3869 0.26297,0.0515 2.93432,0.002 3.61284,-0.0664 z m -1.93606,-12.22453 c 0.17852,-0.19939 0.17821,-0.20396 -0.0432,-0.64593 -0.3995,-0.79746 -0.81586,-1.98218 -0.99751,-2.83833 -0.10225,-0.48192 -0.11398,-0.62254 -0.11582,-1.3878 -0.003,-1.23262 0.11492,-1.7061 0.80484,-3.23308 0.47247,-1.04571 0.58873,-1.42999 0.59273,-1.95924 0.004,-0.50431 -0.1071,-0.92112 -0.38689,-1.45385 -0.31398,-0.59783 -0.27216,-0.56932 -0.57248,-0.39042 -0.25269,0.15053 -0.25479,0.15333 -0.22629,0.30233 0.0517,0.27005 0.03,0.76738 -0.0446,1.02271 -0.099,0.33923 -0.24981,0.59032 -0.64858,1.08 -0.5542,0.68054 -0.79783,1.01878 -1.10961,1.54055 -0.6244,1.04493 -0.88692,1.87424 -0.88643,2.80023 7.4e-4,1.40231 0.5959,2.64042 1.93448,4.02438 0.44194,0.45692 1.46203,1.3482 1.51624,1.32478 0.0146,-0.006 0.097,-0.0901 0.18307,-0.18633 z m 14.19052,-0.56395 c 1.02064,-0.24289 2.14748,-0.81488 2.8954,-1.46973 0.56324,-0.49314 1.07868,-1.36061 1.27998,-2.15414 0.38952,-1.53555 0.10604,-3.3664 -0.81021,-5.23271 -0.46156,-0.94015 -0.97876,-1.70515 -1.69188,-2.50251 l -0.15771,-0.17635 -0.41539,0.23316 c -0.22846,0.12823 -0.42058,0.23771 -0.42693,0.24327 -0.006,0.006 0.14427,0.2417 0.3347,0.52473 0.80508,1.19658 1.193,2.23029 1.193,3.17907 0,0.70726 -0.21057,1.29571 -0.65082,1.81875 -0.58927,0.70006 -1.66395,1.26923 -2.75696,1.46012 -0.55034,0.0961 -1.47439,0.0607 -2.07562,-0.0795 -1.13512,-0.26477 -2.37325,-0.90336 -3.48893,-1.79947 -1.1036,-0.88642 -2.34098,-2.30282 -3.17439,-3.63367 l -0.19854,-0.31704 -0.5806,0.33256 c -0.55148,0.31588 -0.5793,0.33803 -0.55471,0.44165 0.0403,0.16988 0.97691,2.04359 1.31072,2.62218 1.75339,3.03909 3.88884,5.19231 6.06708,6.11753 0.5693,0.24182 1.03253,0.37571 1.74122,0.50331 0.0571,0.0103 0.46835,0.0129 0.91385,0.006 0.69044,-0.0111 0.87447,-0.0283 1.24674,-0.11691 z m -27.824835,-0.2761 c 2.52562,-0.54139 5.027675,-2.58551 7.204325,-5.88578 0.68765,-1.04262 1.68492,-2.85457 1.60866,-2.92279 -0.0188,-0.0168 -0.2767,-0.18459 -0.57313,-0.37286 l -0.53897,-0.34229 -0.0633,0.0965 c -0.73108,1.11381 -2.006125,2.52662 -2.991812,3.31506 -0.996498,0.79709 -2.097301,1.42536 -3.057505,1.74503 -0.804089,0.2677 -1.264121,0.34707 -2.0102,0.34685 -0.902366,-4.1e-4 -1.506862,-0.14006 -2.291359,-0.52987 -1.728405,-0.85884 -2.386996,-2.23532 -1.878668,-3.92649 0.205855,-0.68486 0.775151,-1.70794 1.33982,-2.40777 0.251413,-0.3116 0.278644,-0.25536 -0.291808,-0.60269 l -0.339334,-0.20662 -0.329032,0.352 c -0.710405,0.75999 -1.287837,1.56448 -1.728489,2.40816 -1.168786,2.23778 -1.384993,4.46317 -0.591128,6.08442 0.367739,0.75101 0.845447,1.27147 1.672623,1.82234 0.921562,0.61371 1.917401,0.99911 2.900448,1.12249 0.372281,0.0467 1.566696,-0.0116 1.958899,-0.0957 z m 1.84188,-12.13728 c 0.319847,-0.23831 0.716156,-0.53199 0.880686,-0.65262 l 0.299146,-0.21933 0.899606,0.66947 c 0.494784,0.3682 0.908369,0.6607 0.919078,0.64999 0.0153,-0.0153 -0.564394,-1.8368 -0.669714,-2.10433 -0.01796,-0.0456 0.229686,-0.25062 0.903193,-0.7477 l 0.92793,-0.68485 -1.136151,-0.0111 c -1.131226,-0.011 -1.136326,-0.0114 -1.176394,-0.10384 -0.02213,-0.0511 -0.173093,-0.52273 -0.335465,-1.04819 -0.162373,-0.52547 -0.308265,-0.96945 -0.324206,-0.98664 -0.01594,-0.0172 -0.07182,0.10431 -0.124173,0.27 -0.05236,0.16569 -0.207527,0.65144 -0.344825,1.07945 l -0.249633,0.7782 -1.139233,0.011 -1.139234,0.011 0.912708,0.66461 c 0.501989,0.36554 0.913775,0.69307 0.915079,0.72784 0.0013,0.0348 -0.156514,0.53906 -0.350707,1.12063 -0.194192,0.58157 -0.353077,1.06477 -0.353077,1.07379 0,0.009 0.02336,-0.002 0.05192,-0.0239 0.02856,-0.0222 0.313616,-0.23527 0.633463,-0.47359 z m 20.163505,-0.25707 0.80653,-0.60002 0.64732,0.48022 c 1.03624,0.76875 1.18461,0.87636 1.19456,0.86641 0.005,-0.005 -0.14846,-0.49477 -0.34142,-1.088 -0.19295,-0.59323 -0.35091,-1.08893 -0.35101,-1.10156 0,-0.0126 0.41525,-0.33039 0.92302,-0.70615 l 0.92323,-0.6832 -1.1598,-0.0208 -1.15979,-0.0208 -0.33158,-1.07051 c -0.18238,-0.58878 -0.34363,-1.05102 -0.35835,-1.02719 -0.0147,0.0238 -0.17477,0.50994 -0.35565,1.08026 l -0.32888,1.03695 -1.15498,0.011 -1.15497,0.011 0.93646,0.68406 c 0.51506,0.37624 0.93647,0.69442 0.93647,0.70707 0,0.0127 -0.15888,0.49884 -0.35308,1.08041 -0.19419,0.58157 -0.35307,1.07311 -0.35307,1.0923 0,0.0398 -0.0368,0.0658 1.03499,-0.73154 z m 7.99083,0.0731 c 1.42294,-0.54897 3.01638,-1.68511 3.98256,-2.83964 0.86671,-1.03567 1.3955,-2.08277 1.57504,-3.1189 0.0719,-0.41469 0.0624,-1.19427 -0.019,-1.56593 -0.21129,-0.96501 -0.81265,-1.99687 -1.66675,-2.8599 -0.99198,-1.00236 -2.11631,-1.57021 -3.53121,-1.78346 -0.47678,-0.0719 -1.52462,-0.0822 -2.0765,-0.0206 -2.39848,0.26801 -5.19147,1.538 -7.9754,3.62645 -0.76064,0.57062 -1.14631,0.90148 -1.11434,0.95598 0.18547,0.31611 0.69568,1.0659 0.72532,1.0659 0.0213,0 0.22344,-0.11157 0.44919,-0.24794 0.5603,-0.33845 1.54512,-0.82689 2.16656,-1.07455 1.43691,-0.57263 2.6894,-0.85606 4.00405,-0.9061 1.97252,-0.0751 3.49814,0.45909 4.61822,1.61696 1.34422,1.38957 1.61444,2.89337 0.75617,4.20811 -0.47952,0.73455 -1.28167,1.41307 -2.41682,2.04433 l -0.43978,0.24457 0.26827,0.40116 c 0.14755,0.22065 0.27804,0.40117 0.28998,0.40117 0.0119,0 0.19392,-0.0664 0.40439,-0.14763 z M 89.890131,174.9134 c 0.249589,-0.32911 0.281805,-0.39019 0.224581,-0.42577 -1.004213,-0.62438 -1.343725,-0.8696 -1.820848,-1.31518 -0.581092,-0.54268 -1.046534,-1.26922 -1.206483,-1.88329 -0.0839,-0.32208 -0.08338,-1.00262 0.001,-1.32547 0.151348,-0.57905 0.445103,-1.10535 0.927669,-1.66205 1.329162,-1.53336 3.477445,-2.11713 6.029498,-1.63846 1.668519,0.31296 3.501861,1.08225 5.082852,2.13282 l 0.460118,0.30575 0.405146,-0.54707 0.405136,-0.54706 -0.13892,-0.12462 c -2.763102,-2.47845 -5.45377,-4.05671 -7.966122,-4.67269 -0.85133,-0.20873 -1.31516,-0.26614 -2.152835,-0.26647 -1.188134,-4.6e-4 -1.903287,0.15848 -2.886931,0.64159 -0.716565,0.35194 -1.149854,0.67388 -1.757113,1.30556 -0.764071,0.79479 -1.26125,1.61653 -1.48647,2.45684 -0.09463,0.35308 -0.110209,0.49488 -0.111273,1.01287 -0.0014,0.66037 0.05411,1.00397 0.263907,1.63486 0.640046,1.92469 2.498408,3.88912 4.710953,4.97982 0.501912,0.24742 0.649307,0.3152 0.694679,0.31945 0.01653,0.002 0.161187,-0.1701 0.321451,-0.38143 z m 17.184459,-0.8132 c 0.19343,-0.0987 0.49688,-0.41402 0.65025,-0.67573 0.28134,-0.48008 0.37403,-1.10967 0.28377,-1.92761 -0.0252,-0.22846 -0.14858,-1.30327 -0.27415,-2.38847 -0.12556,-1.0852 -0.35049,-3.03855 -0.49983,-4.34078 -0.70945,-6.18614 -0.667,-5.83941 -0.69924,-5.71155 -0.0144,0.0571 -0.38377,2.7862 -0.82081,6.06463 -0.43704,3.27843 -0.82215,6.15705 -0.85579,6.39694 -0.11594,0.82666 -0.004,1.41353 0.37801,1.98874 0.30093,0.45266 0.60456,0.65486 1.06263,0.70765 0.28791,0.0332 0.56747,-0.008 0.77516,-0.11382 z m 6.13728,-7.82906 c 4.0336,-3.28874 6.25195,-7.06916 5.96856,-10.1714 -0.13346,-1.46095 -0.68241,-2.65409 -1.76569,-3.83774 -0.78168,-0.85409 -1.66316,-1.34997 -2.69308,-1.51497 -0.40615,-0.0651 -1.4279,-0.03 -1.85914,0.0639 -2.09397,0.4557 -4.26076,1.98673 -5.64902,3.99152 l -0.20418,0.29485 0.32006,0.35606 c 0.17603,0.19583 0.3294,0.35749 0.34082,0.35925 0.0114,0.002 0.16096,-0.15862 0.33231,-0.35642 0.36709,-0.42374 1.01317,-1.00869 1.44008,-1.30381 0.88269,-0.61021 1.77635,-0.86743 2.54964,-0.73387 0.70452,0.12167 1.16981,0.37602 1.76435,0.96447 1.03335,1.02275 1.52456,2.23622 1.52174,3.75924 -0.002,1.25636 -0.30447,2.41452 -1.00238,3.84232 -0.65399,1.33795 -1.57209,2.6219 -2.69535,3.7694 l -0.31491,0.3217 0.22706,0.23907 c 0.12489,0.13149 0.33765,0.35477 0.47282,0.49618 l 0.24575,0.25711 0.25054,-0.19481 c 0.1378,-0.10714 0.47531,-0.37806 0.75002,-0.60204 z m -11.91126,-0.75543 c -1.889226,-2.04151 -3.029931,-4.14089 -3.419589,-6.2935 -0.08776,-0.48481 -0.09947,-1.71669 -0.02008,-2.11252 0.216484,-1.07937 0.642839,-1.91602 1.355102,-2.65915 0.726506,-0.75799 1.410407,-1.08527 2.267817,-1.08527 1.03201,0 2.03725,0.51252 3.13655,1.59917 0.23116,0.2285 0.49803,0.50702 0.59302,0.61894 0.20127,0.2371 0.16516,0.25138 0.59822,-0.23659 l 0.25055,-0.28233 -0.20321,-0.29741 c -0.33526,-0.49067 -0.71264,-0.93962 -1.19794,-1.42513 -1.94093,-1.94175 -4.40174,-2.94809 -6.381632,-2.60974 -0.969855,0.16574 -1.771442,0.61581 -2.545499,1.42921 -1.056955,1.11068 -1.63025,2.27087 -1.816169,3.67543 -0.06564,0.49589 -0.02395,1.53734 0.08267,2.06513 0.590218,2.92166 2.852385,6.00889 6.46013,8.81627 l 0.41268,0.32113 0.46373,-0.49162 0.46373,-0.49162 z"
         id="path846"
         inkscape:connector-curvature="0" />
      <path
         style="fill:#0051d4;stroke-width:0.04153857"
         d="m 103.99404,205.67555 c -2.10471,-0.1818 -3.85293,-0.46146 -5.566168,-0.89043 -5.91528,-1.48109 -11.210146,-4.48404 -15.514829,-8.79914 -4.632936,-4.64415 -7.769278,-10.48733 -9.053296,-16.8668 -0.287991,-1.43084 -0.47443,-2.81386 -0.590759,-4.38231 -0.0672,-0.90609 -0.06675,-3.5715 7.59e-4,-4.48617 0.397668,-5.38776 1.9297,-10.27148 4.658487,-14.85004 0.751254,-1.26051 1.98703,-2.99963 2.951624,-4.15385 5.554584,-6.64657 13.318516,-10.83319 21.868022,-11.79211 1.30725,-0.14662 2.12008,-0.18809 3.69694,-0.18861 1.56138,-5.2e-4 2.35631,0.0395 3.69589,0.18583 7.4692,0.81615 14.43649,4.16322 19.7963,9.51009 3.28306,3.27513 5.80035,7.11139 7.49578,11.42328 1.15487,2.93714 1.87869,6.04344 2.15847,9.2631 0.0879,1.01101 0.0884,4.71145 7.9e-4,5.71155 -0.62513,7.13874 -3.44803,13.74084 -8.17876,19.12818 -0.58575,0.66705 -1.88732,1.98651 -2.57918,2.61464 -5.0949,4.62554 -11.37865,7.53054 -18.15236,8.3919 -1.44608,0.18389 -1.9706,0.2085 -4.29924,0.20171 -1.22227,-0.004 -2.29708,-0.0129 -2.38847,-0.0208 z m 4.8522,-4.6458 c 5.56949,-0.45248 11.2843,-2.74835 15.7717,-6.33614 1.58984,-1.27111 2.98268,-2.67532 4.18167,-4.2158 3.04697,-3.91477 4.86918,-7.69821 5.70069,-11.83632 0.68331,-3.40057 0.81238,-7.47171 0.33843,-10.67541 -0.74412,-5.03001 -2.92217,-9.51681 -6.95668,-14.33081 -0.51783,-0.61787 -1.66658,-1.79483 -2.32949,-2.3867 -4.04937,-3.61537 -9.60199,-6.13389 -15.20312,-6.8957 -1.17821,-0.16025 -1.91376,-0.21422 -3.24001,-0.23773 -6.56937,-0.11645 -12.239595,1.63545 -17.15332,5.29978 -2.052024,1.53027 -4.146231,3.55555 -5.781408,5.59113 -4.025847,5.01164 -6.032683,10.85165 -6.052237,17.61235 -0.0038,1.3006 0.04921,2.05792 0.22373,3.19847 0.73628,4.81189 2.968864,9.99789 6.134286,14.24914 3.355842,4.50698 7.562512,7.71036 12.015847,9.15005 3.048019,0.98538 5.919642,1.0449 8.411562,0.17436 0.45806,-0.16002 1.38624,-0.60278 1.80693,-0.86193 0.97536,-0.60085 2.25533,-1.76583 2.81865,-2.56542 0.7268,-1.03162 1.08689,-2.18733 1.08521,-3.48298 -0.001,-0.89205 -0.10004,-1.4902 -0.39775,-2.40607 -0.40224,-1.23743 -0.87324,-2.06866 -2.10732,-3.71906 l -0.75495,-1.00963 -0.2579,0.27891 -0.2579,0.27891 0.62008,1.22919 c 0.67963,1.3472 0.89783,1.86519 1.07941,2.56241 0.40501,1.55515 0.30799,2.81754 -0.3114,4.05171 -0.46847,0.93345 -1.44043,1.91947 -2.57339,2.61061 -1.17141,0.71459 -1.85823,0.89074 -3.47045,0.89007 -3.66999,-0.002 -7.746835,-1.52197 -11.371023,-4.24082 -5.16068,-3.87153 -8.503911,-9.44709 -9.622219,-16.04714 -0.284267,-1.67769 -0.37332,-2.83104 -0.373649,-4.83924 -2.91e-4,-1.80716 0.05565,-2.73103 0.249024,-4.11232 0.656213,-4.6874 2.468313,-8.40576 5.981921,-12.27465 0.681992,-0.75095 2.40561,-2.45507 3.068994,-3.03426 4.389401,-3.83238 8.657379,-5.53639 14.663112,-5.85432 1.01537,-0.0538 3.05538,-0.0533 4.08951,9.6e-4 6.35314,0.33317 10.89745,2.45196 15.80747,7.37025 4.1516,4.1586 6.32064,8.26301 7.24468,13.70894 0.34494,2.03292 0.51866,4.10819 0.51811,6.18925 -5.4e-4,2.12055 -0.17115,3.58697 -0.61806,5.31279 -0.66891,2.58308 -2.07059,5.28898 -4.25182,8.20801 -4.07263,5.45022 -9.78694,9.15571 -15.72833,10.19919 -1.63868,0.2878 -1.70183,0.30146 -1.74454,0.37757 -0.10268,0.18299 -0.48461,0.54095 -0.80373,0.75329 -0.19164,0.12752 -1.05188,0.59094 -1.91163,1.02983 -1.89211,0.9659 -2.03717,1.04557 -1.95679,1.07474 0.21007,0.0762 2.28969,0.0522 3.4181,-0.0395 z m -1.59831,-12.25488 0.16633,-0.18897 -0.18706,-0.40296 c -0.95284,-2.05264 -1.32048,-3.69647 -1.13223,-5.06266 0.10954,-0.79501 0.29057,-1.34608 0.83009,-2.52697 0.4567,-0.99959 0.55068,-1.32809 0.55246,-1.93105 0.001,-0.41639 -0.0133,-0.52034 -0.11357,-0.81 -0.11485,-0.33191 -0.37943,-0.86689 -0.52259,-1.05668 l -0.0758,-0.10044 -0.24347,0.14462 -0.24347,0.14462 0.0136,0.47548 c 0.022,0.7701 -0.12062,1.09712 -0.87226,1.99974 -0.89195,1.07113 -1.55429,2.30374 -1.75782,3.27131 -0.32489,1.54449 0.17969,3.02443 1.57106,4.60791 0.45255,0.51503 1.67516,1.61735 1.79997,1.62287 0.0266,0.001 0.12324,-0.0829 0.21472,-0.18682 z m 13.96479,-0.51244 c 1.5032,-0.30249 3.03709,-1.21776 3.7366,-2.22964 0.96373,-1.39409 1.09237,-3.28707 0.36962,-5.43899 -0.44617,-1.32841 -1.23486,-2.68009 -2.14312,-3.67292 l -0.24404,-0.26675 -0.42384,0.23998 c -0.23312,0.13199 -0.42385,0.24994 -0.42385,0.26211 0,0.0122 0.15796,0.25787 0.35103,0.546 0.82739,1.23482 1.24834,2.44246 1.17086,3.359 -0.0363,0.42894 -0.0957,0.64656 -0.28657,1.04851 -0.14165,0.29835 -0.22914,0.41384 -0.56642,0.7477 -0.58902,0.58303 -1.2906,0.95794 -2.22777,1.19047 -0.40522,0.10055 -0.53175,0.11294 -1.14114,0.11177 -0.59604,-0.001 -0.75037,-0.0162 -1.18385,-0.11551 -2.34763,-0.53775 -4.71726,-2.4052 -6.51294,-5.13267 -0.17298,-0.26273 -0.33914,-0.51098 -0.36925,-0.55166 -0.0508,-0.0687 -0.0961,-0.0501 -0.63244,0.25922 -0.31772,0.18326 -0.58523,0.34074 -0.59445,0.34996 -0.046,0.046 0.77521,1.71622 1.29917,2.64249 0.39561,0.69935 1.22914,1.95283 1.69509,2.54912 1.90026,2.43176 4.06696,3.88319 6.23636,4.17762 0.4256,0.0578 1.4266,0.0176 1.89095,-0.0758 z m -27.873323,-0.2763 c 3.130353,-0.50998 6.332888,-3.49339 8.794613,-8.19284 0.17079,-0.32605 0.3013,-0.61689 0.29001,-0.64631 -0.0185,-0.0482 -1.06568,-0.73395 -1.12083,-0.73395 -0.0127,0 -0.13014,0.15421 -0.26108,0.34269 -0.48128,0.69278 -1.046228,1.35731 -1.759068,2.06915 -0.822214,0.82107 -1.189319,1.12737 -1.997481,1.6666 -0.946992,0.63186 -2.023882,1.10411 -2.970007,1.30244 -0.443366,0.0929 -1.41192,0.12651 -1.853585,0.0643 -1.444012,-0.20355 -2.861311,-1.09589 -3.33673,-2.10085 -0.598155,-1.2644 -0.191143,-2.87614 1.166358,-4.61871 0.145594,-0.1869 0.264042,-0.35513 0.26322,-0.37385 -0.0017,-0.039 -0.758378,-0.51174 -0.819032,-0.51174 -0.05693,0 -0.688649,0.6663 -1.004262,1.05924 -0.832597,1.03657 -1.570104,2.47355 -1.88862,3.67982 -0.521683,1.97571 -0.276123,3.6631 0.712981,4.89932 0.28684,0.35851 0.641929,0.67124 1.152669,1.01517 1.444015,0.97239 3.025569,1.34109 4.630844,1.07956 z m 1.612056,-11.81105 c 0.08433,-0.0657 0.49174,-0.37249 0.905348,-0.6817 l 0.752014,-0.56221 0.923264,0.68527 c 0.507795,0.3769 0.930134,0.6784 0.938529,0.67 0.0084,-0.008 -0.142651,-0.50031 -0.335659,-1.09313 -0.193009,-0.59283 -0.350925,-1.09069 -0.350925,-1.10635 0,-0.0156 0.411232,-0.33281 0.913848,-0.70479 0.502617,-0.37198 0.913849,-0.69133 0.913849,-0.70966 0,-0.0183 -0.518713,-0.0334 -1.152695,-0.0335 l -1.152696,-1.2e-4 -0.330923,-1.06222 c -0.182009,-0.58422 -0.341961,-1.06904 -0.355449,-1.07737 -0.02414,-0.0149 -0.07073,0.12159 -0.500002,1.46484 l -0.215713,0.675 h -1.157807 c -0.636794,0 -1.15674,0.014 -1.155436,0.0312 0.0013,0.0171 0.414387,0.33023 0.917961,0.69577 0.503575,0.36554 0.923258,0.68331 0.932628,0.70615 0.0094,0.0229 -0.142019,0.51778 -0.336421,1.09986 -0.194403,0.58207 -0.353459,1.07275 -0.353459,1.09039 0,0.0544 0.04058,0.0366 0.199744,-0.0874 z m 20.574857,-0.57085 c 0.86302,-0.64396 0.8687,-0.64734 0.97223,-0.5795 0.0573,0.0375 0.46988,0.3401 0.91688,0.67238 0.447,0.33228 0.8221,0.59478 0.83355,0.58333 0.0114,-0.0115 -0.13897,-0.51233 -0.33426,-1.11306 -0.19531,-0.60072 -0.33927,-1.10223 -0.31994,-1.11445 0.0193,-0.0122 0.439,-0.3213 0.93258,-0.68684 l 0.89741,-0.66461 -1.15963,-0.011 -1.15962,-0.011 -0.13062,-0.42513 c -0.3888,-1.2654 -0.55026,-1.73982 -0.58107,-1.70739 -0.0189,0.0199 -0.18328,0.50342 -0.36536,1.07457 l -0.33105,1.03847 -1.15764,0.0208 -1.15765,0.0208 0.78905,0.57803 c 0.43398,0.31793 0.8576,0.63137 0.94139,0.69655 l 0.15233,0.1185 -0.36847,1.1037 c -0.26628,0.79762 -0.3504,1.09677 -0.30334,1.07871 0.0358,-0.0138 0.45577,-0.31648 0.93323,-0.67274 z m 8.25594,-0.0609 c 2.16436,-0.91886 4.05435,-2.64025 4.92161,-4.48259 0.3814,-0.8102 0.50601,-1.35964 0.49928,-2.20154 -0.004,-0.51324 -0.0213,-0.66343 -0.11626,-1.01563 -0.40456,-1.50041 -1.85621,-3.18264 -3.34972,-3.8818 -2.82449,-1.32224 -6.68605,-0.48517 -10.86002,2.35412 -0.81725,0.55593 -2.09406,1.5362 -2.1331,1.63768 -0.008,0.0209 0.14149,0.27312 0.33231,0.56042 0.19082,0.2873 0.35914,0.54141 0.37405,0.56469 0.0163,0.0254 0.13249,-0.024 0.29077,-0.12368 2.31166,-1.45532 5.2746,-2.29648 7.36676,-2.09139 1.54491,0.15145 2.66339,0.63892 3.57232,1.55694 0.61035,0.61646 1.05781,1.35685 1.20589,1.99534 0.0826,0.35634 0.0823,1.00783 -6.7e-4,1.32348 -0.27684,1.05305 -1.18448,2.02522 -2.67984,2.87035 -0.26273,0.14849 -0.50374,0.28536 -0.53558,0.30416 -0.0453,0.0267 0,0.12222 0.2077,0.4388 0.31038,0.47289 0.26315,0.46293 0.9045,0.19065 z m -33.879895,-0.62905 c 0.154363,-0.2092 0.266517,-0.39449 0.249231,-0.41175 -0.01729,-0.0173 -0.190313,-0.12761 -0.384506,-0.24522 -2.647164,-1.60312 -3.398302,-3.51283 -2.139553,-5.43965 0.287225,-0.43967 1.038356,-1.17146 1.485518,-1.44728 0.646468,-0.39875 1.370348,-0.65889 2.170193,-0.77991 0.493263,-0.0746 1.539629,-0.0822 2.097698,-0.0151 1.844108,0.22163 3.984892,1.05698 5.768619,2.25094 0.237003,0.15864 0.445963,0.273 0.464355,0.25412 0.01839,-0.0189 0.204403,-0.26797 0.41336,-0.55355 l 0.37991,-0.51923 -0.24196,-0.22309 c -1.52925,-1.41 -3.615163,-2.85179 -5.268126,-3.64134 -1.84446,-0.88102 -3.456354,-1.26776 -5.046936,-1.21089 -1.541748,0.0551 -2.794701,0.53441 -3.913251,1.49695 -0.621733,0.53501 -1.393645,1.53751 -1.69412,2.2002 -0.333761,0.73609 -0.455767,1.71277 -0.314859,2.52048 0.327849,1.87929 1.75785,3.81819 3.845301,5.21372 0.47362,0.31663 1.656633,0.93539 1.78282,0.93247 0.0361,-8.3e-4 0.191943,-0.17268 0.346306,-0.38188 z m 17.162455,-0.79712 c 0.38285,-0.18732 0.71863,-0.64005 0.89588,-1.20795 0.12047,-0.38594 0.12216,-1.01387 0.005,-1.95231 -0.0484,-0.38839 -0.18121,-1.51928 -0.29518,-2.51309 -0.11398,-0.99381 -0.2544,-2.21816 -0.31204,-2.72077 -0.0576,-0.50262 -0.12396,-1.08208 -0.14738,-1.2877 -0.0234,-0.20561 -0.0974,-0.8505 -0.1644,-1.43308 -0.067,-0.58258 -0.1975,-1.72281 -0.29,-2.53385 -0.0925,-0.81104 -0.17432,-1.50266 -0.18181,-1.53693 -0.0121,-0.0554 -0.0162,-0.0554 -0.037,0 -0.0128,0.0343 -0.33513,2.41755 -0.71622,5.29617 -0.38109,2.87862 -0.76602,5.75524 -0.8554,6.39248 -0.17545,1.25081 -0.19828,1.73971 -0.099,2.12075 0.12959,0.49754 0.51126,1.0758 0.85204,1.29093 0.4009,0.25308 0.93336,0.28686 1.34524,0.0854 z m 5.61128,-7.39842 c 1.59349,-1.23694 3.18314,-2.81819 4.21833,-4.19605 1.16925,-1.5563 1.90551,-3.10054 2.20733,-4.62967 0.13491,-0.68351 0.13342,-1.89768 -0.003,-2.53206 -0.27515,-1.27847 -0.90988,-2.37269 -1.9702,-3.39646 -0.70317,-0.67893 -1.39596,-1.04462 -2.3136,-1.22123 -0.38188,-0.0735 -1.31427,-0.0643 -1.76539,0.0175 -2.13599,0.38711 -4.51734,2.03798 -5.86958,4.06908 l -0.18687,0.28069 0.26294,0.28008 c 0.14461,0.15405 0.2961,0.31607 0.33664,0.36005 0.0719,0.0779 0.0874,0.0658 0.61251,-0.48061 0.59544,-0.61951 1.03254,-0.98534 1.56439,-1.30934 1.29487,-0.7888 2.58328,-0.73698 3.68358,0.14817 0.83395,0.67088 1.44513,1.68997 1.70247,2.83876 0.12471,0.55668 0.13441,1.7381 0.0194,2.35768 -0.39589,2.13203 -1.64774,4.40548 -3.4454,6.25713 l -0.48935,0.50403 0.4685,0.50094 c 0.25768,0.27552 0.47807,0.50199 0.48976,0.50328 0.0117,0.001 0.22665,-0.15711 0.47769,-0.35197 z m -11.46348,-0.0299 c 0.18267,-0.18848 0.39583,-0.41239 0.47368,-0.49758 l 0.14156,-0.15489 -0.41372,-0.42665 c -1.685434,-1.73811 -2.896974,-3.80084 -3.397881,-5.78513 -0.206113,-0.81649 -0.26336,-1.98584 -0.132709,-2.71074 0.31254,-1.73407 1.482896,-3.22153 2.87049,-3.64823 0.38589,-0.11866 1.14997,-0.1097 1.5577,0.0183 0.87891,0.27587 1.4486,0.65783 2.39342,1.60472 l 0.71112,0.71267 0.31696,-0.34681 c 0.17433,-0.19074 0.31659,-0.36966 0.31613,-0.39758 -10e-4,-0.0639 -0.4455,-0.68529 -0.76182,-1.06503 -0.59823,-0.71817 -1.67615,-1.65157 -2.49812,-2.16318 -0.34143,-0.21252 -1.04984,-0.56791 -1.43314,-0.71899 -1.371799,-0.54067 -2.791488,-0.59832 -3.925696,-0.15941 -1.29168,0.49986 -2.677975,2.04788 -3.235889,3.61341 -0.48837,1.37039 -0.425573,3.10015 0.170632,4.70012 0.914207,2.45336 2.898291,4.91566 5.886663,7.30551 0.31788,0.25421 0.58933,0.4622 0.60323,0.4622 0.0139,0 0.17472,-0.15421 0.35739,-0.34269 z"
         id="path844"
         inkscape:connector-curvature="0" />
    </g>
  </g>
</svg>
