<?xml version="1.0" encoding="UTF-8" standalone="no"?>
<!-- Created with Inkscape (http://www.inkscape.org/) -->

<svg
   xmlns:dc="http://purl.org/dc/elements/1.1/"
   xmlns:cc="http://creativecommons.org/ns#"
   xmlns:rdf="http://www.w3.org/1999/02/22-rdf-syntax-ns#"
   xmlns:svg="http://www.w3.org/2000/svg"
   xmlns="http://www.w3.org/2000/svg"
   xmlns:sodipodi="http://sodipodi.sourceforge.net/DTD/sodipodi-0.dtd"
   xmlns:inkscape="http://www.inkscape.org/namespaces/inkscape"
   width="75.072304mm"
   height="80.988213mm"
   viewBox="0 0 75.072304 80.98821"
   version="1.1"
   id="svg8"
   inkscape:version="0.92.4 (5da689c313, 2019-01-14)"
   sodipodi:docname="skaut_logo.svg"
   inkscape:export-filename="D:\Skaut\skaut_web_extern_stuff\obrazky\skaut_logo.png"
   inkscape:export-xdpi="96"
   inkscape:export-ydpi="96">
  <defs
     id="defs2">
    <clipPath
       id="clipPath831"
       clipPathUnits="userSpaceOnUse">
      <path
         inkscape:connector-curvature="0"
         id="path829"
         d="M 0,595.28 H 841.89 V 0 H 0 Z" />
    </clipPath>
  </defs>
  <sodipodi:namedview
     id="base"
     pagecolor="#ffffff"
     bordercolor="#666666"
     borderopacity="1.0"
     inkscape:pageopacity="0.0"
     inkscape:pageshadow="2"
     inkscape:zoom="2.8"
     inkscape:cx="-41.802472"
     inkscape:cy="142.96081"
     inkscape:document-units="mm"
     inkscape:current-layer="layer1"
     showgrid="false"
     fit-margin-top="0"
     fit-margin-left="0"
     fit-margin-right="0"
     fit-margin-bottom="-4.1"
     inkscape:window-width="3840"
     inkscape:window-height="2080"
     inkscape:window-x="-11"
     inkscape:window-y="-11"
     inkscape:window-maximized="1" />
  <metadata
     id="metadata5">
    <rdf:RDF>
      <cc:Work
         rdf:about="">
        <dc:format>image/svg+xml</dc:format>
        <dc:type
           rdf:resource="http://purl.org/dc/dcmitype/StillImage" />
        <dc:title></dc:title>
      </cc:Work>
    </rdf:RDF>
  </metadata>
  <g
     inkscape:label="Layer 1"
     inkscape:groupmode="layer"
     id="layer1"
     transform="translate(-35.291234,-70.619828)">
    <g
       transform="matrix(0.35277777,0,0,-0.35277777,18.899255,189.43697)"
       inkscape:label="ink_ext_XXXXXX"
       id="g1028"
       inkscape:export-xdpi="96"
       inkscape:export-ydpi="96">
      <g
         transform="scale(0.1)"
         id="g1030">
        <path
           inkscape:connector-curvature="0"
           id="path1032"
           style="fill:#231f20;fill-opacity:1;fill-rule:nonzero;stroke:none"
           d="m 1499.32,3192.32 c -22.57,-17.07 -56.01,-46.46 -96.24,-88.69 -58.73,-61.68 -115.39,-148.99 -123.75,-190.65 -16.82,-83.94 -21.81,-182.86 2.86,-286.06 6.22,-26.01 23.16,-38.88 43.81,-38.88 h 409.66 c 20.67,0 37.58,12.87 43.82,38.89 24.71,103.28 19.71,202.21 2.85,286.04 v 0.02 c -8.32,41.62 -64.99,128.93 -123.73,190.64 -40.09,42.11 -73.53,71.35 -96.02,88.54 -20.27,15.48 -41.82,16.35 -63.26,0.15" />
        <path
           inkscape:connector-curvature="0"
           id="path1034"
           style="fill:#231f20;fill-opacity:1;fill-rule:nonzero;stroke:none"
           d="m 961.063,2600.65 c -221.329,0 -304.211,-195.04 -304.211,-329.09 0,-167.96 119.062,-324.6 203.714,-361.91 27.493,-12.12 42.582,-4.62 33.317,27.09 -17.43,59.62 -14.445,124.31 13.355,167.71 41.153,64.25 89.989,71.6 148.532,76.66 25.73,2.22 35.5,10.35 35.5,35.94 v 124.74 c 0,38.67 5.38,47.4 28.11,70.14 0,0 75.38,75.38 94.03,94.03 17.04,17.05 10,30.02 -3.68,38.27 -37.01,22.3 -149.76,56.42 -248.667,56.42" />
        <path
           inkscape:connector-curvature="0"
           id="path1036"
           style="fill:#231f20;fill-opacity:1;fill-rule:nonzero;stroke:none"
           d="m 1851.46,2544.23 c -13.68,-8.25 -20.72,-21.22 -3.68,-38.27 18.65,-18.65 94.03,-94.03 94.03,-94.03 22.74,-22.74 28.11,-31.47 28.11,-70.14 v -124.74 c 0,-25.59 9.77,-33.72 35.5,-35.94 58.55,-5.06 107.38,-12.41 148.53,-76.66 27.8,-43.4 30.79,-108.09 13.36,-167.71 -9.27,-31.71 5.83,-39.21 33.32,-27.09 84.65,37.31 203.71,193.95 203.71,361.91 0,134.05 -82.88,329.09 -304.21,329.09 -98.91,0 -211.66,-34.12 -248.67,-56.42" />
        <path
           inkscape:connector-curvature="0"
           id="path1038"
           style="fill:#231f20;fill-opacity:1;fill-rule:nonzero;stroke:none"
           d="m 1526.45,2330.44 c -9.5,-1.42 -21.27,3.65 -18.65,7.11 1.13,1.49 4.08,5.4 1.82,10.11 -3.09,6.42 -13,6.52 -19.38,2.47 5.12,11.6 21.66,19.37 35.73,19.37 19.84,0 24.41,-11.3 23.22,-19.95 -1.42,-10.36 -10.44,-17.27 -22.74,-19.11 z m 211.07,-21.51 c -1.74,6.93 -5.92,27.86 -4.11,33.42 1.78,5.57 6.14,16.75 9.32,26.04 16.46,47.8 8.9,97.86 3.63,109.24 -1.02,2.2 -3.24,2.5 -4.76,2.74 -23.33,3.5 -42.46,-11.49 -65.7,-39.4 -9.3,-11.16 -19.77,-19.66 -22.39,-4.36 -1.76,10.1 6.14,30.84 -3.3,29.91 -21.88,-2.3 -36.13,-14.84 -48.51,-31.11 -9.54,-12.58 -10.26,-19.18 -21.35,-19.51 -22.14,-1 -32.45,-1.91 -49.52,-5.99 -17.12,-4.07 -31.59,-10.45 -41.85,-16.79 -12.85,-8.01 -22.48,-20.05 -52.66,-20.29 -48.34,-0.41 -109.68,-1.52 -133.48,-6.06 -24.47,-4.65 -27.94,-20.19 -14.96,-41.9 15.24,-25.41 19.76,-80.02 50.52,-87.81 8.16,-17.34 13.72,-30.56 21.66,-29.79 2.73,0.57 5.51,8.99 7.5,16.76 4.26,17.04 20.77,17.79 31.67,18.35 27.49,1.4 48.82,-0.17 67.4,-10.62 12.72,-7.17 18.94,-19.92 16.54,-24.85 -4.33,-8.85 -13.43,3.23 -60.62,-6.32 -26.67,-5.39 -43,-19.69 -77.36,-19.69 -51.2,0 -76.28,34.67 -85.29,65.63 -4.54,15.53 -7.83,30.01 -26.12,12.91 -23.49,-21.97 -25.22,-63.75 -0.93,-89.27 16.11,-16.92 38.65,-25.73 65.81,-28.24 8.32,-0.65 24.94,-1.06 38.51,-0.43 0,0 -3.87,-10.62 1.97,-20 5.87,-9.4 23.38,-16.69 51.31,-8.38 39.96,11.9 74.3,23.01 101.81,2.46 5,-3.73 11.18,-10.62 11.18,-15.1 0,-8.15 -29.98,-31.56 -114.06,-54.2 -103.38,-27.84 -127.64,-97.06 -117.17,-134.9 0.94,-3.46 3.17,-6.83 5.79,-6.97 2.87,-0.16 18.7,9.12 27.75,10.75 17.6,3.14 10.18,-9.64 7.94,-25.73 -7.98,-57.39 73.59,-129.78 145.63,-179.65 39.89,-27.61 61.36,-37.03 71.42,-37.03 10.3,0 31.62,7.62 71.41,37.03 112.29,82.98 186.75,199.19 174.68,261.1 -6.85,35.13 -25.14,56.52 -16.4,62.17 10.12,6.5 31.8,-10.35 36.58,-7.38 11.28,7 16.42,72.02 -4.37,140.01 -19.74,64.58 -41.89,90.38 -55.12,143.25" />
        <path
           inkscape:connector-curvature="0"
           id="path1040"
           style="fill:#231f20;fill-opacity:1;fill-rule:nonzero;stroke:none"
           d="m 885.98,1662.33 c -220.062,-13.89 -375.722,171.46 -375.722,353.23 0,69.11 10.043,105.52 28.402,143.93 15.656,32.75 33.641,54.96 44.387,54.91 10.57,-0.02 13.758,-15.47 15.476,-24.56 42.618,-222.77 199.77,-352.07 306.743,-353.81 31.363,-0.52 69.527,6.69 72.929,21.93 4.871,21.83 -32.64,68.4 -32.64,155.78 0,35.38 15.547,99.51 113.485,103.37 86.32,3.41 128.23,-77.37 128.23,-148.82 0,-148.32 -109.16,-293.81 -301.29,-305.96" />
        <path
           inkscape:connector-curvature="0"
           id="path1042"
           style="fill:#231f20;fill-opacity:1;fill-rule:nonzero;stroke:none"
           d="m 598.012,2344.13 c 17.562,130.12 90.965,226.79 172.488,273.12 129.953,73.83 258.71,45.87 349,25.49 13.39,-3.03 24.27,-1.1 28.45,7.05 3.4,6.72 1.01,14.36 -9.59,25.5 -42.45,44.71 -140.126,141.87 -152.356,152.08 -29.731,24.79 -78.852,39.5 -117.27,39.5 -219.57,0 -358.492,-166.98 -358.492,-352.86 0,-48.65 13.61,-111.53 28.551,-146.87 13.883,-32.8 29.258,-61.94 41.453,-61.94 14.078,0 15.184,19.85 17.766,38.93" />
        <path
           inkscape:connector-curvature="0"
           id="path1044"
           style="fill:#231f20;fill-opacity:1;fill-rule:nonzero;stroke:none"
           d="m 1860.02,2702.6 c -6.16,4.69 -7.55,13.95 -6.15,28.02 9.3,93.33 -0.16,185.13 -18.82,228.22 -23.98,55.42 -81.39,136.29 -126.27,183.29 -58.24,60.99 -79.18,77.79 -106,98.13 -6.72,5.09 -21.2,13.29 -21.2,20.06 0,7.5 11.16,15.27 24.66,21.53 25.17,11.68 62.08,27.56 129.48,33.37 80.16,6.89 194.39,-10.4 280.64,-120.63 48.68,-62.22 55.5,-137.49 55.5,-188.42 0,-60.61 -9.71,-115.15 -38.52,-146.62 -42.68,-46.6 -134.09,-137.58 -146.11,-148.39 -5.83,-5.25 -19.13,-14.66 -27.21,-8.56" />
        <path
           inkscape:connector-curvature="0"
           id="path1046"
           style="fill:#231f20;fill-opacity:1;fill-rule:nonzero;stroke:none"
           d="m 1201.43,2702.6 c 6.16,4.69 7.55,13.95 6.15,28.02 -9.3,93.33 0.16,185.13 18.82,228.22 23.98,55.42 81.39,136.29 126.27,183.29 58.24,60.99 79.19,77.79 106,98.13 6.72,5.09 21.2,13.29 21.2,20.06 0,7.5 -11.16,15.27 -24.66,21.53 -25.16,11.68 -62.08,27.56 -129.47,33.37 -80.17,6.89 -194.4,-10.4 -280.65,-120.63 -48.68,-62.22 -55.496,-137.49 -55.496,-188.42 0,-60.61 9.703,-115.15 38.516,-146.62 42.68,-46.6 134.09,-137.58 146.11,-148.39 5.83,-5.25 19.14,-14.66 27.21,-8.56" />
        <path
           inkscape:connector-curvature="0"
           id="path1048"
           style="fill:#231f20;fill-opacity:1;fill-rule:nonzero;stroke:none"
           d="m 2175.48,1662.33 c 220.06,-13.89 375.72,171.46 375.72,353.23 0,69.11 -10.04,105.52 -28.4,143.93 -15.66,32.75 -33.65,54.96 -44.39,54.91 -10.57,-0.02 -13.76,-15.47 -15.48,-24.56 -42.62,-222.77 -199.77,-352.07 -306.74,-353.81 -31.37,-0.52 -69.53,6.69 -72.93,21.93 -4.87,21.83 32.64,68.4 32.64,155.78 0,35.38 -15.55,99.51 -113.49,103.37 -86.32,3.41 -128.23,-77.37 -128.23,-148.82 0,-148.32 109.17,-293.81 301.3,-305.96" />
        <path
           inkscape:connector-curvature="0"
           id="path1050"
           style="fill:#231f20;fill-opacity:1;fill-rule:nonzero;stroke:none"
           d="m 2463.44,2344.13 c -17.56,130.12 -90.96,226.79 -172.49,273.12 -129.95,73.83 -258.71,45.87 -349,25.49 -13.39,-3.03 -24.27,-1.1 -28.45,7.05 -3.4,6.72 -1,14.36 9.59,25.5 42.46,44.71 140.13,141.87 152.36,152.08 29.73,24.79 78.85,39.5 117.27,39.5 219.57,0 358.49,-166.98 358.49,-352.86 0,-48.65 -13.61,-111.53 -28.55,-146.87 -13.88,-32.8 -29.26,-61.94 -41.45,-61.94 -14.08,0 -15.18,19.85 -17.77,38.93" />
        <path
           inkscape:connector-curvature="0"
           id="path1052"
           style="fill:#231f20;fill-opacity:1;fill-rule:nonzero;stroke:none"
           d="m 1702.24,1594.37 c 49.37,37.2 76.03,62.18 117.26,104.38 19.02,19.46 40.84,21.53 63.69,-0.49 31.76,-30.67 70.84,-55.74 127.99,-60.45 22.92,-1.9 35.15,5.43 51.33,-2.45 8.24,-4 16.09,-15.06 16.66,-34.01 2.29,-75.5 -33.8,-162.94 -143.15,-182.47 -70.87,-12.66 -142.09,8.81 -177.28,41.81 -24.09,22.55 -50.66,47.68 -66.1,68.53 -16.13,21.74 -15.39,46.35 9.6,65.15" />
        <path
           inkscape:connector-curvature="0"
           id="path1054"
           style="fill:#231f20;fill-opacity:1;fill-rule:nonzero;stroke:none"
           d="m 1359.21,1594.37 c -49.37,37.2 -76.03,62.18 -117.26,104.38 -19.01,19.46 -40.84,21.53 -63.69,-0.49 -31.76,-30.67 -70.84,-55.74 -127.99,-60.45 -22.91,-1.9 -35.15,5.43 -51.325,-2.45 -8.238,-4 -16.093,-15.06 -16.664,-34.01 -2.293,-75.5 33.799,-162.94 143.149,-182.47 70.87,-12.66 142.09,8.81 177.28,41.81 24.09,22.55 50.66,47.68 66.1,68.53 16.14,21.74 15.4,46.35 -9.6,65.15" />
        <path
           inkscape:connector-curvature="0"
           id="path1056"
           style="fill:#231f20;fill-opacity:1;fill-rule:nonzero;stroke:none"
           d="m 1530.73,1507.65 c 28.17,0 50.23,17.18 69.3,19.66 16.13,2.1 26.52,-2.9 41.3,-17.7 21.41,-21.45 52.24,-55.01 72.74,-80.15 14.78,-18.13 34.82,-48.39 7.3,-118.92 -33.79,-86.64 -155.1,-200.85 -190.64,-200.85 -35.55,0 -156.86,114.21 -190.65,200.85 -27.52,70.53 -7.48,100.79 7.3,118.92 20.5,25.14 51.33,58.7 72.75,80.15 14.77,14.8 25.16,19.8 41.3,17.7 19.06,-2.48 41.12,-19.66 69.3,-19.66" />
      </g>
    </g>
  </g>
</svg>
